<svg xmlns="http://www.w3.org/2000/svg" width="643" height="643" fill="none" viewBox="0 0 643 643">
    <path fill="#fff" fill-rule="evenodd" d="M175.941 365.057c1.3 8.51 4.642 15.956 7.427 23.845 1.453 3.808 3.255 7.486 5.384 10.992 1.299 2.216 2.97 7.535 5.384 4.432.371 1.596-.093 2.393.464 3.9.743 2.128 4.827 4.698 6.591 6.383 1.671 1.595 3.62 2.748 5.384 4.166.371.266 1.114.089 1.393.354.556.621 0 1.419.278 1.685 2.878 3.457 7.89 5.939 11.604 8.421 5.384 3.634 10.675 7.268 15.873 11.08 4.085 3.014 8.077 6.205 12.161 9.219 1.888 1.345 3.547 2.959 4.92 4.787 1.764 2.304 2.042 2.393.836 4.875-2.228 4.343-6.313 7.091-9.005 10.903-3.063 4.432-5.106 9.307-9.283 13.03-1.856-3.988-4.27 1.862-1.207 1.241-1.485 4.078-4.641 7.535-6.869 11.435-2.518 4.466-5.308 8.787-8.355 12.942-.278-1.064-.649-2.127-.928-3.191-2.97.709-.557 2.748-.371 3.546.185.709.835.798.371 2.393-.567 1.188-1.353 2.269-2.321 3.191-1.671 2.216-3.249 4.432-4.827 6.737-1.578 2.216-2.135 4.078-3.156 6.205-.928 1.95-1.764 1.596-3.156 3.014-1.485 1.507-2.971 4.077-4.363 5.762-4.048 5.156-7.503 10.713-10.304 16.576-2.599 5.496-7.427 9.307-9.562 15.158-1.114 3.014-1.485 6.116-2.506 9.13-.928 2.836-2.414 5.407-2.971 8.332-.464 2.394-.185 5.23-.371 7.358-.186 1.772-.928 4.432-.742 6.825.464 5.141 2.692 9.574 5.384 13.917-12.161 3.9-25.993 5.053-38.803 4.787-6.498-.178-13.924-.178-20.33 1.241-3.713.798-6.498 1.861-10.397 1.595-3.898-.266-7.704-.62-11.603-.975 1.114-2.216 4.827-4.875 6.869-6.559 1.207-.975 3.156-1.153 4.085-2.128 1.021-1.063 1.392-3.723 1.763-4.964 2.809-9.806 5.071-19.748 6.777-29.784 3.156-17.817 4.363-35.9 5.57-53.806.093-1.329.742-2.836.742-4.077-.092-1.95-.464-3.103-.278-4.964.093-1.153 1.578-2.748 1.485-3.812-.093-.886-1.671-.266-1.671-1.595 0-2.039 2.971-4.876 3.621-6.649.278-.709-.65-1.595-.743-2.393v-.177s.743-2.837.743-2.926c.185-.886 1.114-1.152 1.021-2.304 0-.975-1.578-2.216-.743-3.28.557-.709 2.599.443 3.063-.355.557-.975-1.949-4.52-1.671-6.027.465-2.571 2.414-5.142 3.064-7.801.278-1.152 0-3.014.928-3.989 1.578-1.595 2.878 0 5.106-.532-2.321-1.861-2.692-3.457-2.042-6.205.556-2.127 1.578-4.432 3.991-2.304-.371-3.191-.371-3.635 2.135-6.028 1.207-1.152 2.507-3.102 3.899-3.9.464-.443.836-.887 1.3-1.33.549.581 1.316.931 2.135.975 6.869-.354 10.397-1.684 16.709 2.216 2.692 1.684 5.384 2.925 7.612 5.053 2.599 2.393 4.641 5.318 7.426 7.534 3.064 2.571 6.127 4.61 8.819 7.535 2.228 2.393 4.456 5.141 7.519 6.56.279-3.457-1.763-6.56-3.527-9.574-.492-.487-1.055-.905-1.671-1.241-.186-.62.557-1.152.278-1.684 2.6 2.305 5.384 5.673 8.355 7.357 4.92 2.748 2.692-2.659 1.764-5.407-2.878-8.048-7.319-15.506-13.089-21.983-9.84-11.258-26.178-23.756-41.866-16.665-15.503 7.003-23.672 18.792-28.127 34.393-5.199 18.172-7.52 35.546-8.077 54.338-.278 10.726-1.392 21.452-2.599 32.178-1.114 10.459-1.671 21.806-3.806 32-1.305-1.68-2.28-3.572-2.878-5.585-.278-.886.093-1.773-.371-2.571-.185-.354-1.299-.354-1.578-.709-1.764-2.925-4.177-7.003-4.92-10.46-.371-1.772 0-2.836-.835-4.52-.743-1.507-1.114-.089-1.393-1.95 0-.266 1.207-.71.836-1.951-1.021-3.102-1.671-.177-2.135-.177-1.022 0 1.206-6.382 1.02-7.357-.185-1.153-.742-.532-1.02-1.33-.324-.956-.572-1.934-.743-2.925-.557-3.191-1.857-4.255-1.857-7.712-.092-4.166-1.67-6.825-2.413-10.814-.093-.71.743-1.596.557-2.216-.279-1.33-1.3-2.482-1.764-3.901-.835-2.925.835-5.496.557-8.332 0 .443-.928-2.128-1.021-2.305-.371-1.329-.186-3.014-.464-4.432-.279-1.33-1.114-3.102-.372-4.343.557-.887 1.671-.621 2.414-1.596-2.506-.798-1.95.089-2.878-2.571-.835-2.57-.928-4.698 1.95-3.014-.743-1.684-2.042-3.811-2.414-5.673-.278-1.684.372-3.279.186-4.964-.464-4.432-1.95-7.18.742-11.523-3.527-1.684-1.949-7.623-2.506-10.903-.557-3.546-2.042-6.914.743-9.219-3.528-2.393-1.764-10.194-1.671-13.917.093-3.546-.186-7.18-.186-11.346 0-2.305-.65-3.989-1.207-6.294-.742-3.014 0-5.23-.278-8.155-.186-2.305-1.114-4.609-1.207-7.003.048-2.573-.045-5.147-.278-7.712-.279-2.038-.836-3.457-.836-5.673-.154-.789-.216-1.591-.186-2.393 0 0 .929-2.128.929-1.152 0-3.458-1.764-6.826-.836-11.081.743-3.457 1.393-2.925 5.106-2.659 2.878.177 5.755.354 8.633.354 3.713 0 15.781-2.481 18.473.089 2.228 2.128.928 11.967 1.114 14.981.278 4.875-4.641 6.382-5.941 11.346-2.599 9.485 1.671 21.983 13.274 22.781 10.862.798 21.258-7.712 19.773-18.172-.557-4.166-2.599-8.775-6.405-11.257-3.713-2.394-11.511-.621-14.11-3.457-1.207-1.33-.743-6.56-.836-8.244-.185-2.571-1.392-7.623.372-8.776 1.949-1.329 8.076-1.418 10.304-1.418 3.104.088 6.211-.09 9.283-.532 7.055-1.152 14.017-1.063 20.886-2.57 6.777-1.507 13.089-3.014 19.494-5.674zm83.64 0c1.392 0 4.455 11.258 5.291 13.208 2.228 5.407 3.156 10.903 4.363 16.665 1.299 5.85 2.413 11.789 3.992 17.64 1.206 4.343.928 8.51 2.599 12.942-.464 2.748 0 7.357-3.156 8.509-2.785 1.064-4.642-1.506-5.756-3.723-2.878-6.027-1.949-14.005-2.97-20.476-1.207-7.623-1.3-15.158-2.228-22.781-.836-6.826-3.621-15.335-2.135-21.984zM136.025 210.731c3.063 3.368 7.705 1.95 11.789 1.595-1.764 3.723-4.177 7.801-4.27 11.967-.093 2.216 1.207 4.166 1.207 6.205 0 2.039-1.764 3.989-2.599 5.939-3.714 8.598-4.642 20.299-4.828 29.518-.278 19.147 5.756 39.535 18.473 54.515 2.676 3.191 5.729 6.076 9.098 8.599 1.856 1.329 10.304 4.609 10.675 6.47.743 3.723-7.89 3.369-10.304 3.635-5.013.709-9.933 1.684-14.945 2.305-20.052 2.57-39.824 4.609-60.061 3.545-2.228-.088-6.405.975-8.54.089-2.507-.975-1.671-3.014-1.578-5.319.185-6.027-.743-11.878-1.3-17.817-.464-4.787.743-4.166 4.456-6.825 4.118-3.176 7.182-7.426 8.819-12.233 3.527 2.748 1.02 4.255 1.485 7.712.65 4.255 3.62 3.546 5.662.709 3.064-4.432 2.785-11.524-.092-15.956-2.6-3.989-11.882-10.105-17.174-8.243-6.962 2.393.65 10.548 3.899 12.321-.835 2.216-5.384 4.255-7.334 5.496-2.784 1.684-6.405 2.748-9.654 3.634-8.382 2.46-17.245 3.036-25.9 1.684-8.54-1.152-18.38-3.811-23.856-10.548-2.414-2.925-4.549-7.269-2.321-10.903 2.042-3.28 7.148-3.457 9.654-6.648 1.114-1.33 1.578-3.192 2.6-4.521 1.578-2.128.928-1.773 3.991-1.507 4.92.443 10.211.709 15.038-.443 3.62-.887 7.241-2.482 10.769-3.457 3.819-1.211 7.329-3.174 10.304-5.762 6.776-5.673 13.367-11.79 19.587-17.906 6.22-6.116 10.21-14.005 16.059-20.476 6.591-7.358 12.903-16.754 22.651-20.743 5.662-2.393 5.569.089 8.54 3.369zm23.578 24.376c.929.975.372 6.294 1.207 8.067 3.435 6.648 9.469 5.141 15.688 3.723.557 5.318.929 11.257 3.157 16.221 1.021 2.217 2.599 4.078 3.341 6.383.465 1.418.279 3.28.836 4.698.65 1.507 2.228 2.57 3.156 4.077 1.114 1.773 1.671 3.369 3.156 4.876 3.249 3.368 7.612 6.205 10.026 10.194.931 1.428 1.324 3.116 1.114 4.786 0 .709-.557 3.191-.279 3.723.836 1.862 3.806 2.305 4.085 4.698.185 1.33-.557 1.153-.836 2.305-.278 1.33-.092 2.305-.649 3.812-.836 2.393-4.456 6.914-4.085 8.953-5.291 2.836-14.667 4.609-20.701 3.279-6.127-1.329-12.253-7.889-16.152-12.232-9.283-10.194-14.667-26.239-15.131-39.535-.279-6.737.649-13.562 1.021-20.299.185-3.812-.65-14.537 2.692-17.197 1.021-.798 7.612-1.241 8.354-.532zm-49.849 12.765c-8.262.443-15.317 12.764-13.739 19.945 1.207 5.939 3.342 1.329 4.92-1.153 1.857-3.014 5.292-6.648 9.376-5.85 4.549.886 5.663 6.116 7.519 9.396 3.342 6.028 4.363-.443 5.106-4.166-.557-7.18-3.249-18.704-13.182-18.172z" clip-rule="evenodd"/>
    <path fill="#101010" fill-rule="evenodd" d="M605.742 615.41c-4.236 1.373-8.389 2.971-12.439 4.787-4.734 1.861-7.983 2.216-13.089 2.216-19.865 0-39.452.975-59.318 1.33-5.384.088-10.953.177-16.338.088-2.227 0-4.363-.266-6.498-.443-1.392-.089-7.519.709-8.354.266-2.321-1.33-.928-9.839-1.207-12.587-.525-4.711-1.712-9.332-3.527-13.74-6.313-15.956-16.803-31.468-30.17-42.903 18.009-7.18 37.689-16.753 57.647-12.499 7.612 1.596 17.73 3.812 21.629 10.815 4.177 7.534 7.891 15.778 12.625 22.958 5.384 8.067 11.047 14.892 18.752 20.92 3.063 2.393 18.472 17.019 16.152 5.673-.743-3.634-3.528-7.003-5.756-9.928-1.114-1.507-7.147-6.471-6.219-8.155 1.021-1.95 11.975-3.369 14.388-3.989 4.827-1.241 9.655-2.659 14.482-3.989-1.764 3.103-11.233 14.981-5.199 18.083 2.228 1.153 7.984-2.836 10.397-3.546 4.177-1.152 7.983-.443 12.068.798-.093 1.95-4.085 1.95-5.384 3.28-1.95 1.95-3.249 7.091-1.764 9.396 2.785 4.255 13.646-.088 18.473 1.507-5.477 5.319-14.017 7.446-21.351 9.662zm-270.69-176.487c.093.088 0 .266-.742.797-.186-.709-.557-.797-1.021-.62.371-.355.649-.532 1.021.62.297-.219.549-.49.742-.797zm1.671-2.305c-.035.183-.14.348-.294.462-.154.114-.347.171-.541.158 0-.088 0-.177.093-.177.278-.886.742-.709.557-2.393.094.109.16.239.192.378.032.138.03.282-.007.42.135.164.209.367.209.576 0 .209-.074.412-.209.576zm-48.178 77.385c.464-1.064.557-2.305 1.207-3.28-.65.975-.65 2.216-1.207 3.28zm186.308 108.942c-7.148-.266-14.203-.178-21.351.177-15.316.621-30.726.709-46.043 1.95-7.379.576-14.786.754-22.186.532-6.591-.177-13.182 0-19.68-.532-7.148-.62-13.924-2.482-21.165-2.57-6.962-.089-15.224-.887-21.908.088-1.206.177-1.763.887-3.156 1.064-1.856.266-4.549-.532-6.498-.621-3.435-.177-7.148.178-10.49-.62-1.049-.276-2.073-.632-3.063-1.064-1.249-.347-2.52-.613-3.806-.798 3.156-1.152-3.899-3.457-4.456-3.545-.185.443.186 1.063.65 1.684-1.764-1.33.093-.798-2.785-2.128-1.589-.541-3.241-.898-4.92-1.063-.895-.092-1.797-.092-2.692 0 .166-.147.294-.329.371-.532 1.022-1.95-2.042-4.166-3.713-2.837.271.609.581 1.201.929 1.773l-.093-.088c-.65-.71-1.764-2.482-2.971-3.635 1.485-.798-.371-1.861-1.021-2.925-.464.266-1.021.443-1.207.798.372-.798 1.393-1.507.743-3.014-.241-.579-.623-1.096-1.114-1.507.226.228.5.41.804.532.303.122.63.182.96.177-.715-.858-1.223-1.857-1.486-2.925-.185-.886 1.022-1.684-.185-2.482 0-.798.557-4.609-1.578-3.28 1.392-3.989 3.713-8.155 5.477-12.055 4.084-9.13 8.261-18.349 12.439-27.479 7.055-14.981 14.295-29.962 22.372-44.588 7.983-14.448 16.709-28.454 24.321-43.169 7.241-14.182 15.781-27.745 23.114-41.839 3.435-6.648 8.077-12.144 9.283-19.856.372-2.482.464-7.712-3.434-6.825-2.6.62-6.22 6.825-7.891 8.775-1.485-1.95-9.933-13.473-12.16-6.648-1.95 5.85 10.211 8.421 5.384 14.36-.465.621-2.507 1.152-3.157 1.684-1.299 1.064-2.413 2.926-3.434 4.167-2.228 2.925-4.085 6.027-6.127 8.952-.371.532-1.857 1.862-1.949 2.482-.093.355.278.71.464 1.064-1.671 1.418-3.806 2.659-4.178 4.964.093.089.186.089.372 0-1.578 1.596-3.528 5.319-3.806 5.762-2.135 2.925-4.178 6.028-6.22 9.041-1.114 1.685-3.063 3.635-3.713 5.496-.186.621.464 1.773-.186 2.394-1.578 1.595-3.156 1.241-4.363 4.432-.464 1.241-.557 3.014-1.299 4.077-1.207 1.773-2.971 2.571-4.085 4.432-2.135 3.546-4.734 7.446-6.126 10.992-.093-.266-.093-.62-.186-.886-.743 1.329-1.578 2.659-2.321 3.989.929-.075 1.793-.488 2.414-1.153-.031.215-.093.424-.186.621-.668.311-1.393.491-2.135.532-.557.797-1.021 1.684-1.485 2.482-.545 1.656-.979 3.344-1.3 5.052-.021-.512-.115-1.019-.278-1.507-1.022 1.773-1.95 3.635-2.971 5.408 1.764-1.33 1.671-1.507 3.342-1.596-2.135 0-5.384 2.925-5.663 5.673-.093.443.279.975.464 1.418h-.185c-2.228-.177-1.578.266-2.414 2.039 1.013-.33 1.979-.776 2.878-1.329.046.097.07.203.07.31 0 .107-.024.213-.07.31-.557.798-5.106.266-2.135 2.127-2.414-1.506-3.62 3.546-2.785 5.23-.65.887-1.392 1.685-2.135 2.571-1.63 1.797-2.946 3.832-3.899 6.028-1.949 4.255-4.363 8.421-6.498 12.498-.817 1.51-1.748 2.962-2.785 4.344-1.764 2.57-1.485 1.95-.093 4.787-.557-.178-1.299.265-2.042.797.069-.187.179-.359.323-.503.144-.145.318-.258.511-.334.193-.075.4-.11.608-.104.209.007.413.056.6.144-1.763-3.546-3.342.797-4.177 2.836h.093c-.093.177-.186.266-.279.443-.835 1.685-1.856 2.66-1.114 4.432.186-.975 1.022-1.684 1.393-2.57-.464 2.039-2.785 4.432-3.528 5.85-.557 1.153-.649 2.305-1.392 3.546-.679 1.015-1.269 2.083-1.764 3.191-2.506 6.294-3.713 13.385-5.291 20.033-1.711 7.973-2.736 16.067-3.063 24.2-.093 2.304-.186 4.432.742 6.648.093.355 1.485 2.039 1.485 2.659-.185 3.28-6.59 2.571-9.097 2.482-3.899-.177-6.591.443-10.397.975-3.527.443-6.869.178-10.397 1.064-5.848 1.33-14.667 3.546-20.329.532-2.785-1.418-6.22-5.585-8.169-7.978-2.414-2.925-3.249-5.85-3.713-9.485-.743-6.293-.836-13.208 1.485-19.235 10.582-27.923 28.87-53.274 44.558-78.626 14.76-23.845 31.283-46.449 46.043-70.205 7.798-12.587 17.174-24.997 26.549-36.61 9.469-11.878 16.246-24.731 23.022-38.205 6.962 3.546 14.296 7.092 22.093 8.687 4.456.887 8.819.621 13.275.887 3.249.177 6.034.975 9.376 1.064 14.667.354 31.562-1.33 45.579-5.496 3.271-.928 6.467-2.083 9.561-3.457 3.992-1.862 5.106-2.571 5.292 1.684.464 8.244 1.856 16.221 2.506 24.377.65 7.977 2.321 15.778 3.806 23.667.743 3.989 1.578 7.978 2.135 11.967.464 3.014 1.857 7.269 1.3 10.282-.65 3.369-3.899 6.737-5.849 9.574-1.949 2.925-3.898 5.762-5.755 8.687-3.507 5.415-7.351 10.625-11.511 15.601-7.89 9.219-14.667 18.969-22.093 28.543-7.983 10.194-14.574 21.097-22.372 31.379-4.084 5.408-8.355 10.549-11.047 16.665-2.228 5.053-6.776 9.751-9.468 14.715-3.621 6.559-8.262 12.587-11.79 19.235-2.506 4.61-7.333 9.308-7.89 14.715-.836 9.041 8.076 0 10.211-2.482 2.785-3.368 5.848-9.219 10.026-11.08 2.97-1.33 7.333-1.153 10.582-2.216 3.435-1.064 6.684-2.217 10.119-3.192 6.683-1.95 13.089-4.609 19.587-7.002 6.683-2.482 13.46-5.053 20.051-7.801 2.837-1.215 5.835-2.05 8.911-2.482 1.393-.266 6.406-2.482 7.52-2.305 1.856.355 4.455 5.496 5.848 6.915 2.135 2.038 4.641 3.723 6.683 5.939 4.178 4.388 8.083 9.005 11.697 13.828 7.705 10.637 14.945 22.249 17.73 35.102.929 5.673-.557 6.028-6.405 5.851zm-201.254-13.917c-.035-.035-.062-.077-.078-.123s-.021-.095-.015-.143c0 .089.093.177.093.266.929-.532 1.114-.266 1.3.177-.183-.132-.399-.217-.626-.248-.227-.031-.459-.007-.674.071zm-2.135-5.939c0-.177-.093-.266-.093-.443.075.136.108.29.093.443.18-.15.411-.233.65-.233.239 0 .47.083.65.233-.19-.13-.417-.2-.65-.2-.233 0-.46.07-.65.2zm.929-3.9c.278 0 .557-.178.928-.532-.279.266-.557.62-.836.886v-.089c.093-.088 0-.177-.092-.265zm-91.252-32.532c-2.042 4.698-2.97 9.839-4.734 14.626-1.241 3.616-1.989 7.37-2.228 11.169 1.207.886 1.207 1.595-.093 2.304-.077.826-.108 1.654-.092 2.482-.24 2.336.045 4.693.835 6.914.986 3.383 2.488 6.608 4.456 9.574-12.161 3.9-25.992 5.053-38.71 4.787-6.869-.178-14.574-.178-21.351 1.418-7.24 1.773-13.553.975-20.98.443 1.115-2.127 5.199-5.584 7.334-7.003 1.114-.709 2.785-.886 3.621-1.684 1.114-1.152 1.299-3.457 1.763-4.964 2.809-9.806 5.071-19.748 6.777-29.784 3.156-17.728 4.641-35.9 5.57-53.806.093-1.507.928-3.191.835-4.609-.093-1.862-.65-2.482-.464-4.344.093-1.241 1.671-2.925 1.578-3.989-.093-.709-1.856-.088-1.764-1.418.186-2.039 2.971-4.787 3.621-6.648.278-.798-.743-1.684-.743-2.571 0 .266.743-2.836.743-2.925.185-.886 1.114-1.241 1.021-2.305 0-.975-1.578-2.216-.743-3.279.836-1.064 2.507.531 3.064-.355.557-.975-1.95-4.521-1.671-6.028.464-2.748 2.506-5.673 3.249-8.51.278-1.063-.186-2.304.742-3.279 1.578-1.596 2.878 0 5.106-.532-2.228-1.773-2.692-3.546-2.042-6.205.557-2.128 1.578-4.432 3.991-2.305-.278-2.836-.649-3.102 1.393-5.407 1.891-2.176 4.005-4.166 6.312-5.939 3.249-2.305 8.448-3.457 12.254-3.723 4.177-.266 9.375 1.861 12.532 4.875 3.898 3.723 8.818 6.383 13.274 9.928 4.642 3.723 8.726 8.244 13.182 12.233.928.798 2.599 3.102 4.084 2.748 2.321-.621.465-3.989-.092-5.407-3.621-10.46-10.119-21.097-19.123-28.189-4.642-3.723-9.19-8.332-14.574-11.08-4.363-2.216-7.705-1.862-12.347-1.95-3.991-.089-4.734-.355-8.262 1.241-2.509 1.088-4.957 2.301-7.333 3.634-3.92 2.143-7.435 4.899-10.397 8.155-7.426 8.865-10.304 20.122-13.182 30.848-3.352 11.656-5.283 23.643-5.755 35.723-.371 12.499-1.021 24.82-2.321 37.319-.65 6.47-1.485 12.941-2.321 19.412-.835 5.939-.835 12.322-2.135 18.172-1.578-2.216-2.042-3.9-2.97-6.294-.557-1.595-1.207-1.507-2.042-2.748-2.154-3.158-3.754-6.631-4.735-10.282-.464-1.862 0-2.837-.835-4.521-.279-.532-1.578-.089-1.857-.886-.185-.621.65-1.064.65-1.241-.093-.444 1.207-.975.093-2.394-1.578-2.038-.836.532-1.671.444-.743 0 1.485-7.092 1.207-8.156-.093-.354-1.3-.443-1.393-.709-.278-.975-.278-2.482-.557-3.634-.742-2.659-1.763-3.812-1.856-6.826-.093-4.077-1.671-6.914-2.414-10.814-.186-.709.743-1.596.557-2.216-.371-1.33-1.3-2.482-1.764-3.9-.742-2.66.279-6.471 0-8.599-.185-1.95-.742-4.964-1.114-7.357-.556-3.9.465-2.571 2.228-5.053-2.413-.709-2.135-.088-2.877-2.57-.929-2.925-.836-4.61 1.95-3.014-.744-1.684-2.043-3.812-2.414-5.673-.279-1.684.37-3.28.185-4.964-.464-4.61-2.042-7.092.743-11.524-3.528-1.684-1.95-7.623-2.507-10.903-.557-3.546-2.042-6.825.743-9.219-2.878-1.95-1.764-7.534-1.67-10.548 0-1.33.463-3.723.37-4.964-.092-.887-.65-1.418-.835-2.393-.65-3.635.743-7.269-.093-10.903-.779-3.831-1.244-7.713-1.392-11.613-.279-3.9-.929-7.977-1.207-11.966-.186-2.926-1.392-6.205-.835-9.219 0-.266.742-2.394.835-1.95 0-.798-.65-1.773-.65-2.216-.217-3.365-.248-6.738-.093-10.106.27-.191.482-.449.613-.745.13-.296.175-.62.13-.939 3.527-.355 7.333.532 10.861.621 3.806.088 7.612-.089 11.325-.266 2.414-.089 7.705-1.241 9.562.709 1.299 1.418.464 8.687.557 10.548.092 2.216 1.299 5.762-.093 7.712-.836 1.241-2.785 1.684-3.713 3.014-.597.944-1.065 1.957-1.393 3.014-.951 2.649-1.361 5.447-1.207 8.244.65 13.03 11.697 19.058 23.95 13.828 10.768-4.61 13.646-18.438 4.456-26.238-2.135-1.862-4.456-2.305-7.241-2.748-1.763-.266-6.591-.089-7.704-1.33-1.114-1.152-.836-4.875-1.022-6.471-.185-2.482-1.206-6.205-.649-8.598-.929-1.95-.279-2.837 1.856-2.571.65-.088 1.393-.266 2.042-.354 1.764-.266 3.435-.621 5.199-.798 3.156-.177 6.219.177 9.283-.266 3.063-.355 6.127-1.152 9.19-1.507 3.249-.443 6.498.089 9.747-.443 6.684-1.064 13.924-2.571 20.237-5.053 1.671-.709 4.548-2.659 6.405-2.305 2.228.355 1.671 1.773 2.321 3.812 3.527 11.258 10.954 22.427 18.844 31.38 7.426 8.421 17.173 15.246 25.992 22.338 5.384 4.254 10.49 8.775 15.503 13.473 3.62 3.369 7.519 8.776 12.16 10.726 1.021 0 5.199-.443 5.941.355.836.886.836 1.329.465 1.861 1.021-2.482-3.714-2.039-6.406-2.127.279.443 3.249 6.205 3.992 3.013.413.27.847.507 1.3.71-2.177 4.552-4.82 8.887-7.891 12.941-2.135 2.926-5.013 5.053-6.962 8.067-2.506 3.812-4.549 7.8-7.612 11.169-6.22 6.825-9.654 15.867-15.131 23.402-2.599 3.634-3.992 7.002-6.684 10.548-2.135 2.837-5.57 6.382-6.776 9.662-.465 1.33 0 2.393-.836 3.634-.557.798-2.228 1.596-3.063 2.394-3.157 3.102-5.663 7.623-8.169 11.257-2.692 3.901-4.456 7.978-6.777 12.056-2.413 3.989-6.219 6.914-8.262 11.435zm-82.432 17.817c-1.67 0-2.228 0-2.414-.621-.088-.257-.12-.528-.092-.797-.028.269.004.54.092.797.186.709.743.709 2.414.621zm.186-5.851c.185.444-.836 1.153-3.62.887 2.784.354 3.805-.443 3.62-.887zm-6.684 14.715c.278.177.464.443.743.621-.27-.181-.52-.389-.743-.621zm-16.988 30.759c-2.228-.709-7.983-2.039-11.79-3.634 1.672.443 3.436.798 4.085 1.063 2.6.887 5.106 1.773 7.705 2.571 3.62-12.499 17.174-17.197 28.87-21.806-5.57-.266-7.612-4.875-10.954-8.155 3.342 3.28 5.384 7.978 10.954 8.155-11.696 4.609-25.25 9.396-28.87 21.806zm-12.717-12.498c-.093.177-.279.443-.372.62-.892 1.682-1.637 3.431-2.228 5.23-.092-1.862 1.114-4.078 2.6-5.85zM75.316 375.1c.175-.072.367-.103.557-.089-.65 0-.743.709-.836 1.684-.556-.62-.65-1.241.279-1.595zm42.145 28.72c3.991 1.862 7.797 3.014 11.603 5.23-4.641 3.457-19.401 8.953-19.03-1.596.093-1.241.836-4.609 1.95-5.318 1.856-1.152 3.898.975 5.477 1.684zM72.16 354.358c17.452 5.85 37.781 4.343 55.512 1.506 19.03-3.013 38.06-4.875 56.533-10.548 0 2.482 1.114 5.053-.929 7.003-1.578 1.595-5.012 1.861-7.147 2.57-5.477 1.773-10.212 4.255-16.06 5.319-6.498 1.152-12.903 1.152-19.401 1.861-2.321.266-4.549.621-6.777 1.064-2.894.022-5.77.44-8.54 1.241-10.954.089-21.815.355-32.769-.886-5.57-.621-11.046-1.419-16.616-1.95-5.199-.444-3.992-2.571-3.806-7.18zm-6.684-44.676c-10.304 2.748-20.886 1.861-31.005-1.241-7.333-2.216-16.988-5.496-18.566-14.006-1.02-5.584 2.507-6.648 6.591-8.953 1.738-.906 3.207-2.217 4.27-3.811.836-1.153 1.486-3.901 2.414-4.698 2.135-1.862 9.004-.266 12.346-.355 5.013-.177 8.448-1.862 13.09-3.28 8.168-2.482 13.367-5.584 19.679-11.346 6.22-5.585 13.46-11.346 18.473-17.906 5.57-7.357 10.954-14.626 17.081-21.629 4.548-5.23 12.717-15.689 20.793-15.689 4.085 0 3.435 3.723 6.684 5.584 2.971 1.684 6.777.532 10.026.266-2.136 4.609-5.106 9.396-4.085 14.626.557 2.925.928 3.989-.278 6.737-1.223 2.422-2.217 4.944-2.971 7.534-2.825 10.921-3.765 22.209-2.785 33.419 1.95 18.792 8.633 38.116 23.393 51.412 3.333 2.964 7.082 5.47 11.14 7.446 4.084 1.951 4.455 4.078-.65 4.964-9.933 1.685-19.958 2.926-29.891 4.167-9.933 1.241-20.051 2.57-30.17 2.836-5.012.089-9.932.709-14.852.355-2.507-.178-4.92-.621-7.427-.621-2.135-.088-5.384.975-7.426.178-3.156-1.241-1.578-10.106-1.857-13.12-.278-3.545-2.599-10.105-1.206-13.385.928-2.304 4.548-3.279 6.405-5.141 3.063-3.014 5.848-6.471 7.055-10.548 3.806 2.925.557 4.875 1.67 8.421 1.3 3.9 3.621 2.659 5.478 0 3.063-4.521 2.877-11.435-.093-15.956-1.839-2.541-4.333-4.587-7.24-5.939-2.322-1.152-7.334-3.28-9.84-2.305-6.87 2.66.463 10.46 3.898 12.322-.835 2.304-6.776 5.673-9.004 6.648-3.25 1.152-7.52 2.039-11.14 3.014zm94.129-71.624c.027 1.236.246 2.461.65 3.635.862 2.476 2.691 4.54 5.105 5.762 4.735 2.393 14.389-1.064 18.566-3.812 0 8.421 1.578 15.158 4.085 23.136 2.413 7.712 7.426 14.005 11.696 20.919 2.228 3.546 4.27 7.269 7.334 10.194 3.156 3.014 3.713 4.078 3.434 8.51-.464 7.18-4.084 12.144-10.861 15.158-5.384 2.836-16.523 5.141-22.371 2.748-6.22-2.482-12.161-9.042-16.153-14.006-9.097-11.346-13.738-28.454-13.181-42.548.278-7.358.649-14.892 1.392-22.161.557-5.319.371-13.03 8.447-10.637 2.692.798 1.671.177 1.857 3.102zm31.191 98.571c.742-1.507 7.704-3.014 8.911-2.127 1.857 1.329 1.857 9.307 2.507 11.523 1.011 3.59 2.347 7.09 3.991 10.46 3.421 7.329 8.13 14.045 13.925 19.856 5.941 5.673 12.81 9.662 20.051 13.74 2.042 1.152 4.084 2.57 6.219 3.634.929.443 2.507.62 3.249 1.329 1.764 1.685.929 5.053.929 7.181-.093 8.687-.093 17.019 1.114 25.529-7.055-5.23-13.461-11.878-19.773-17.995-6.591-6.382-15.131-10.637-21.444-17.374-5.662-6.205-10.211-13.385-14.388-20.476-1.857-3.103-5.291-7.092-5.477-10.726-.093-3.9 1.764-8.155 1.764-12.233 0-2.925-2.785-10.016-1.578-12.321zm85.124 88.288c-.464 2.571-.093 8.244-3.899 8.776-2.599.354-4.27-1.95-5.198-3.989-2.878-6.028-1.95-14.006-3.064-20.477-1.299-7.623-1.299-15.158-2.32-22.781-.836-6.737-3.806-15.246-2.228-21.806 1.392 0 5.291 12.942 6.127 14.981 1.763 4.255 3.713 7.8 5.198 12.232 2.057 5.687 3.61 11.528 4.641 17.463.743 4.166 3.064 11.789.743 15.601zm20.979-28.72c-3.527 5.23-7.426 10.726-12.346 15.158 0-2.482-1.949-10.46-.65-12.322 1.578-2.304 10.397-2.393 12.996-2.836zM159.234 189.039c2.97-1.33 6.405-1.684 9.375-3.102 2.566-1.287 5.375-2.07 8.262-2.305 11.233-.887 22.651 1.861 33.047 4.875 5.756 1.684 10.212 5.23 15.039 8.421 5.013 3.28 7.705 6.028 9.933 11.524 4.501 11.417 7.646 23.281 9.375 35.368 1.857 12.587-1.207 25.352-1.021 38.028.186 12.498 1.114 25.44 5.291 37.318 3.249 9.219 8.912 23.934 20.887 24.909 11.418.886 20.979-10.371 25.714-18.704 12.439-22.249 17.08-47.601 17.73-72.598 1.764-8.332 2.785-17.374 5.755-25.352 3.342 5.053 6.127 10.46 9.283 15.69 3.435 5.673 3.157 10.371 2.878 16.842-.186 5.053-2.135 9.839-2.785 14.892-.742 5.762-2.228 11.435-2.599 17.285-.371 6.915 0 13.917-.65 20.831-.557 5.762-1.856 11.613-2.785 17.374-.818 5.519-1.128 11.095-.928 16.665.093 5.407 2.042 10.637 6.869 13.474-7.147 8.332-15.966 20.742-27.848 22.692-3.992.621-7.705 1.153-11.79 1.507-3.249.266-7.148 1.95-9.932 0-4.92-3.368-5.849-10.903-7.705-15.778-1.3-3.368-13.925-31.202-20.608-23.313-1.207 1.418-.929 6.559-1.114 8.51-.279 2.836-.186 5.761-.279 8.598-.093 3.634-.464 7.357-.185 10.992.185 2.216 1.578 4.52-1.022 5.052-2.413.532-7.519-4.077-9.282-5.23-2.321-1.595-4.92-2.748-7.241-4.343-4.79-3.127-8.943-7.062-12.254-11.612-3.549-4.58-6.568-9.514-9.004-14.715-1.207-2.659-2.228-5.319-3.156-7.978-.55-1.149-1.016-2.334-1.393-3.546.279-.797 3.435-2.038 4.27-2.57 9.005-6.826 10.861-23.756 8.448-33.684-1.485-6.028-6.312-11.258-9.654-16.399-3.342-4.964-6.777-9.751-9.562-14.981-3.063-5.762-5.384-11.878-8.076-17.817-1.299-2.837-2.878-4.344-.928-6.914 1.207-1.596 3.713-2.305 4.734-3.989 1.114-1.773 1.207-5.141-.742-6.471-2.136-1.418-5.199.532-7.148 1.33-2.6.975-5.199 1.507-7.798 2.304-2.971.887-5.663 2.837-8.912 2.837 1.671-5.585 9.098-5.053 11.511-10.283 1.671-3.545 1.393-10.194-3.713-10.814-2.878-.355-5.198 1.773-7.333 3.191-2.878 1.862-5.013 2.216-8.262 2.837-1.207.177-3.249 1.329-4.363.975-1.857-.621-.836-.266.185-1.684 1.486-2.217 4.92-4.344 7.055-5.94 4.735-3.634 11.233-6.204 15.317-10.371 2.692-2.748 3.992-12.055-1.114-13.562-2.042-.621-5.384 1.33-7.426 1.95-3.435.975-6.869 1.773-10.211 2.925-5.941 2.039-11.697 4.432-17.731 6.294 3.621-5.053 10.212-9.042 15.596-11.435zm201.718-1.418c0 3.191 1.299 9.307-.186 12.232-1.3 2.66-9.283 4.078-12.068 5.142-9.097 3.28-18.102 6.914-27.384 9.573 9.561-13.474 23.857-21.363 39.638-26.947zm-1.3-43.701c-2.321 3.191-6.498 7.623-11.232 6.116-5.199-1.684-9.19-9.219-6.591-14.005 2.228-4.078 8.726-6.648 12.625-3.457.835.709 1.392 2.482 2.227 3.014.557.354 1.393-.621 2.043-.178 1.949 1.153 2.692 3.812 5.477 3.635 1.299-.089 5.384-3.28 6.219-4.167 2.228-2.216 1.485-4.432 1.857-7.357.464-3.989 3.342-4.609 6.684-6.648 3.156-1.95 5.662-4.875 8.725-6.737 3.714-2.216 1.579.621 5.013.886.65.089 1.95-1.861 3.064-1.861 1.392 0 1.949.886 2.784 1.861 1.671 2.039.465 2.748 3.435 3.192 2.135.354 3.435-1.153 5.291-1.153 1.486-1.595 3.714-5.052 6.406-3.989 1.856.709 2.506 4.344 2.877 5.851 1.486 5.762 1.393 12.498 1.393 18.437-3.435-2.304-3.899-3.9-5.013-7.623-.743-2.393-2.414-6.028-4.27-2.305-.557 1.064-.093 2.66-.464 3.723-.372 1.33-1.393 1.951-1.486 3.369-.371 3.457 2.6 4.698 5.199 6.382-2.414 2.482-9.376.621-7.519 5.939 1.949 5.585 9.468 2.482 13.181 1.064 3.157 11.523-10.953 17.108-19.586 20.299-5.106 1.862-7.055 2.925-7.705 8.51-.57 4.866.098 9.793 1.949 14.36.699 2.03 1.536 4.014 2.506 5.939.836 1.418 2.6 1.507 3.157 2.305 2.135 2.925.557 9.307.371 12.764-.65 9.574-3.806 18.349-5.198 27.745-.65 4.787-2.785 9.308-3.621 14.006-.835 4.343-1.114 8.421-5.013 11.523-7.704 6.205-13.645-3.014-16.338-9.041-3.806-8.599-4.177-19.945-3.527-29.164.65-10.016 5.477-19.59 5.755-29.518.279-10.637-1.392-20.742-4.177-31.025-1.207-4.52-2.97-8.509-4.456-12.853-1.392-3.457.65-6.648-2.042-9.839zM379.61 38.79l-.185-.178.185.178zm.279-.975c-.108-.726-.295-1.439-.557-2.128.371.266.928.444.928.71.013.496-.116.986-.371 1.418zm11.418 1.861c-.093 0-.186.089-.279.089-.16.023-.325-.008-.464-.089h.186c.086.044.181.067.278.067.097 0 .193-.023.279-.067zm6.034-1.861c-1.166-.11-2.342.042-3.435.443l.557-.266c.942-.211 1.915-.271 2.878-.177zm-60.711 280.82c.186-4.787.186-6.205 4.178-9.308 3.342-2.571 6.498-5.318 9.84-7.8 7.333-5.674 15.224-11.613 23.671-15.779 4.734-2.393 17.545-7.091 14.296 2.216-3.064 8.776-9.005 16.576-14.017 24.377-5.199 7.978-10.397 15.956-15.781 23.756-2.321 3.369-4.828 6.737-7.055 10.194-2.228 3.457-2.414 5.673-6.963 4.344-3.249-1.064-6.962-2.305-10.118-3.635-2.692-1.152-2.599-1.861-2.599-4.964 1.671-8.066 4.177-15.246 4.548-23.401zm21.073-96.178c-1.114 4.432-9.376 4.964-13.739 5.762-.743.177-4.642 1.33-5.291.887-1.393-.798-.743-3.103-1.3-4.255-3.342-6.205-3.342 1.684-4.27 3.545-2.599 5.053-6.498-5.141-7.983-7.623-1.114-1.95-2.321-2.925-1.114-4.521.928-1.329 6.312-2.304 7.983-2.836 6.034-2.128 11.975-4.255 17.916-6.382 2.599-.887 10.49-5.762 10.397-1.153-1.021 5.407-1.207 11.258-2.599 16.576zm-4.456 52.477c-2.507.709-9.376 3.723-11.882 2.304-2.135-1.152-.65-5.407-.464-7.534.386-4.215.448-8.452.185-12.676-.371-6.116-.928-6.56 5.384-8.244 2.414-.62 9.84-4.077 11.697-2.127.835.886.464 3.811.65 4.875.396 2.373 1.081 4.693 2.042 6.914 1.628 3.795 3.716 7.394 6.219 10.726-4.341 2.462-8.988 4.398-13.831 5.762zm-14.296-43.081c1.114-1.506 6.498-1.684 8.262-2.038 3.156-.621 6.312-1.241 9.468-1.95.186 3.723 2.321 13.296-.464 15.955-1.578 1.507-6.776 1.862-9.004 2.394-2.414.531-4.827 1.152-7.241 1.684-.278-3.546-.464-7.092-.928-10.637 0-1.241-.928-4.167-.093-5.408zm.65 48.665c1.671-1.861 6.219-1.773 8.726-2.304 3.966-.904 7.847-2.119 11.604-3.635 2.135-.886 6.312-3.723 8.633-3.014.649.178 2.042 2.748 2.506 3.28 3.073 2.44 6.694 4.17 10.583 5.053-16.803 6.559-30.263 18.26-44.187 29.075-1.021-.798-.464-7.801-.371-9.485l.556-9.042c.093-2.57.186-7.978 1.95-9.928zm50.963 64c-.464 2.748-.557 6.471-1.856 9.042-1.114 2.304-1.022 2.127-3.992 2.216-3.806.088-8.169.709-11.789-.443 3.249-6.915 6.034-14.36 10.489-20.654 1.393-1.95 4.085-7.003 7.055-6.737 2.971.266 2.321 3.103 2.043 5.141-.372 3.812-1.207 7.624-1.95 11.435zm14.76-107.701c2.228-14.892 2.042-29.429 2.042-44.41 3.621.444 7.612.178 11.14 1.153-1.114 3.457-4.363 6.559-1.207 9.839 3.249 3.28 10.861 4.787 15.317 6.028 5.198 1.418 10.49 3.191 15.781 3.989 2.442.486 4.953.576 7.426.266 3.806-.709 4.177-1.685 6.684 2.127 0 .024.01.046.027.063.017.016.041.026.066.026-.784-.214-1.605-.274-2.414-.178.093.266.186.621.279.887-.722-.488-1.545-.82-2.414-.975-2.506-.443-5.663.62-8.076 1.152-5.408 1.106-10.74 2.527-15.967 4.255-4.363 1.507-8.726 3.103-12.996 5.053-3.249 1.507-10.768 4.166-11.789 7.8-1.95 7.092 17.637 12.41 22.372 14.804 4.548 2.216 3.063 5.584 3.156 10.105.093 4.875.557 9.75.186 14.537-.279 3.812-.557 3.191-4.549 3.103-2.971-.089-5.941-.178-8.819 0-4.207.154-8.367.9-12.346 2.216-5.848 2.127-17.081 12.41-5.848 15.601 4.641 1.329 10.489.798 15.224.532 4.084-.266 10.489-2.039 14.481-.709 2.042-.532 2.785.177 2.228 2.127.093 1.33.186 2.748.278 4.078l.557 8.243c.372 5.585.743 11.169 1.207 16.842-3.435-4.609-8.169-13.828-15.41-12.764-6.312.886-9.932 10.194-11.975 14.98-1.547 3.934-2.819 7.961-3.806 12.056-1.021 3.9-1.485 9.396-3.434 12.942-1.95 3.457-4.549 2.304-8.54 2.659-4.92.443-2.971-2.216-2.136-6.205 1.207-6.116 5.385-16.576 1.3-22.249-5.198-7.269-12.532 6.205-14.481 9.75-1.828 3.404-3.471 6.895-4.92 10.46-.929 2.305-1.671 7.269-4.085 8.51-2.877 1.507-7.519-.887-10.211-1.773-3.156-.975-6.591-1.33-9.747-1.95 9.19-13.74 18.751-27.213 27.663-41.13 4.456-6.914 10.026-14.183 12.532-22.072.599-1.437.883-2.975.835-4.521-.185-1.33-2.32-3.457-2.135-4.432.186-1.418 3.157-2.571 4.456-3.989 4.735-5.053 5.941-11.08 7.427-17.551 1.578-6.826 3.527-14.183 4.641-21.275zm17.916-42.548c6.962-1.418 14.946 2.393 20.794 5.496 3.899 2.039 14.11 6.293 14.574 11.346-.093-1.33-9.561-.532-11.418-.443-7.983-1.684-16.524-3.9-23.95-7.18-2.692-1.241-5.941-2.394-4.92-5.496.557-2.039 2.971-3.28 4.92-3.723zm-8.076 98.482c-4.456-.266-20.422-.089-12.346-7.712 5.012-4.787 14.388-5.85 21.072-5.85 2.39.012 4.776.16 7.148.443l1.949.266c2.042-.355 2.599.443 1.857 2.393.371 1.152.928 7.978-.093 8.953-1.393 1.241-5.848.709-7.519.798-4.085.177-8.076.709-12.068.709zm23.393 57.884c-11.604 1.684-23.207 3.723-34.997 3.9 1.764-8.244 3.806-16.399 7.055-24.2 2.043-4.964 5.756-15.778 12.904-15.246 5.755.443 12.439 9.751 14.017 14.537 2.042 6.294 1.021 14.538 1.021 21.009zm29.891-124.721c-.186 1.153-5.477 3.192-6.591 3.812-8.184 4.538-15.07 10.931-20.051 18.615-.557-2.925-.464-8.421-2.971-10.46-4.455-3.634-3.527 4.521-4.084 7.003-.464 2.305.093 1.95-1.95 2.127-1.856.178-6.59-3.191-8.354-3.989-4.734-2.304-9.283-4.875-13.925-7.534 3.806-5.939 14.946-8.687 21.351-11.081 9.19-3.457 18.195-5.229 27.849-6.648 1.578.798 1.857-.975 3.063-1.418.036-.035.062-.077.078-.123s.021-.095.015-.143c1.393 2.127 5.941 8.155 5.57 9.839zm11.882 80.577c4.549 19.767 5.663 40.332 11.325 59.833 5.384 18.527 10.211 37.053 16.431 55.313 3.62 10.549 6.962 21.186 11.789 31.291 3.342 7.092 6.034 22.161 14.203 25.441 5.384 2.127 7.705.266 7.148-4.964-.464-4.521-2.971-7.358-4.92-11.258-.743-1.33-2.97-5.141-2.785-6.648.279-1.773.743-1.596 2.785-2.482 4.084-1.812 8.343-3.237 12.718-4.255-1.764 2.659-5.384 6.382-5.663 9.662-.278 2.659 1.764 7.535 4.549 8.598 2.599.975 5.662-1.063 7.983-2.304 2.599-1.419 5.106-1.862 7.891-2.837-3.621 5.053-9.562 9.042-7.055 15.867 2.692 7.357 11.139 1.33 16.616.532-1.578 5.673-8.355 12.233-13.275 15.335-3.357 2.143-6.862 4.067-10.489 5.762-1.393.709-3.157 1.064-4.456 1.861-.464.266-1.3 1.596-1.764 1.773-6.127 2.837-14.481 3.546-21.165 4.876-6.979 1.435-14.133 1.942-21.258 1.507-6.219-.266-13.182-3.989-18.38-7.003-3.992-2.305-4.549-5.23-5.755-9.308-2.043-6.825-3.899-13.739-5.849-20.653-1.671-5.94-2.506-11.613-3.62-17.64-2.414-12.765-3.528-25.707-6.127-38.471-2.599-12.676-3.434-25.441-4.177-38.383-.371-6.204-1.393-12.587-1.764-18.703-.278-4.964-.185-9.928-.185-15.069 0-3.635-1.3-7.18-1.207-10.815.232-3.098.232-6.209 0-9.307-.743-6.826-1.3-13.651-1.95-20.477-1.114-13.385-4.363-26.592-5.662-39.889-.557-5.762 6.034-11.257 10.582-14.626 4.827-3.546 8.633-8.598 13.925-11.435 1.856 23.225 4.363 46.183 9.561 68.876zm-79.369 247.224l-15.595 6.648c-3.806 1.596-8.819 4.964-12.996 4.698 2.97-3.9 4.827-8.244 8.076-12.055 3.156-3.723 5.755-7.712 8.633-11.701 3.806 4.343 7.705 8.421 11.882 12.41zm1.114-19.413c7.89-3.989 19.03-11.435 28.22-10.017 6.591 1.064 14.11 5.674 18.102 10.726 1.856 2.394 3.713 4.61 5.941 7.003 1.949 2.127 2.97 1.861 1.299 4.078-1.299 1.684-4.455 2.925-6.498 3.545 0-3.811 1.207-7.534-3.527-7.18-1.857.178-4.085.532-5.941.887-1.578.266-2.507.886-3.899 1.241-1.485.354-3.249-.089-4.734.088-2.599.178-4.735 1.153-7.148 1.685-4.877 1.119-9.682 2.51-14.389 4.166-2.32-3.369-4.177-7.358-7.333-10.017-3.435-3.102-4.92-3.723-.093-6.205zM334.774 35.776c.454-.075.887-.24 1.271-.484.384-.244.71-.563.957-.934-1.114 1.595-1.671 1.595-2.228 1.418zm-23.579 2.57c.895.13 1.768.369 2.599.71.571.29 1.101.647 1.578 1.063-.209-.104-.426-.193-.649-.266-1.134-.588-2.313-1.092-3.528-1.506zM295.507 162.18c-.093-.088-.093-.177-.186-.266.04.102.103.193.186.266zm-3.063.444c-.303-.095-.564-.282-.743-.532.18.25.441.437.743.532.206.079.429.109.649.088-.22.021-.443-.01-.649-.088zm-1.207-2.394c-.02.299.011.598.093.887-.087-.288-.119-.588-.093-.887zm3.713 1.33l-.186-.177.186.177zm-.65-.532c-.102-.094-.231-.155-.371-.177.14.021.269.083.371.177zM424.818 41.626c.143.072.304.103.464.089-.156-.021-.311-.05-.464-.089zm4.085 2.571c-.403-.377-.719-.83-.929-1.33.037.034.081.06.129.075s.099.02.15.014l.464-.443c-.103.14-.166.305-.182.476-.017.17.014.343.089.499.743 1.507 1.671-.798 2.785.354-.928 0-1.949.355-2.506.355-1.3 1.684-2.6 3.457-3.899 5.141 1.764.887 2.321-.177 3.342 1.33.093.089.093.266.093.532-.372-1.153-1.486-.887-3.435-1.862 1.207-1.684 2.599-3.457 3.899-5.141zm3.342 3.812c.114-.101.209-.221.278-.355 0-.089.093-.266.093-.355 0 .178 0 .266-.093.355-.093.089-.093.266-.278.355-.037.033-.081.059-.129.074-.048.016-.1.02-.15.014.093 0 .186-.088.279-.088zm-1.579 2.748c.093.088.093.177.186.266 0-.09-.093-.178-.186-.266zm-1.949 6.736c-1.857-.975-.278-2.127-.186-3.634v.443c-.092 2.039-1.671 2.66 1.114 3.28.186 0 .464.089.743.089-.564.045-1.131-.016-1.671-.178zm29.056 15.424c-.093-.886 4.084-2.748 4.548-2.925-.557.266-4.641 2.127-4.548 2.925zm4.827-7.534c-.053-.046-.086-.11-.093-.178 0 .089 0 .178.093.178zm2.135 6.914c.044-.205.075-.412.093-.62.098.317.161.644.185.974-.012-.076-.044-.148-.093-.21-.048-.062-.112-.111-.185-.144zm-3.156-.089c0-1.418.464-1.152.742-1.064-.278.355-.742.444-.742 1.064zm-4.456 3.191c.21-.022.422.007.617.085.194.077.365.2.497.358-.65-.177-1.3-.354-1.114-.443zm-3.528 8.244c-.093 0-.093 0-.185.089 0-.089.092-.089.185-.089zm.279-.089c-.093 0-.093 0-.093.089l.093-.089zm-.65.178c-.05-.006-.102-.002-.15.014-.048.015-.092.04-.129.074.037-.033.081-.059.129-.074.048-.016.1-.02.15-.014zm2.785 49.905c.268-.267.634-.426 1.021-.443-.302.094-.568.269-.766.506-.198.236-.319.522-.348.824-.052-.146-.07-.3-.054-.453.016-.153.066-.301.147-.434zm3.249-9.218h-.093c-.928-.089-1.3.531-1.392 1.329-.009-.331.083-.658.264-.941.181-.283.444-.51.757-.654 0-.089-.093-.089-.093-.178.186.178.371.266.557.444zm-1.114 4.609c.004-.124-.028-.247-.093-.355.081.425.205.84.371 1.241-.092-.266-.185-.62-.278-.886zm.835-14.36c-.092 0-.185.089-.278.089.05.005.101.001.15-.015.048-.015.092-.041.128-.074zm.186-.089c-.093 0-.093.089-.186.089.071-.009.136-.04.186-.089zm-.464.178c-.093 0-.186.088-.371.088.185 0 .278 0 .371-.088zm182.873 506.681c-2.506-2.128-10.953-2.305-14.202-2.925 7.24-6.56 12.624-23.225-1.114-25.441-3.064-.443-3.899.621-4.642-2.659-.464-2.039.464-3.9-.65-5.939-2.506-4.787-11.975-4.255-16.709-4.964 1.114-3.812 3.899-10.549-.278-13.651-3.342-2.393-10.119.798-13.646 1.861-9.469 2.837-19.123 6.028-27.106 11.701-3.621-4.609-7.334-9.13-10.304-14.183-2.878-4.786-4.642-10.016-7.334-14.892-2.692-4.875-5.57-10.548-9.376-14.803-3.156-3.546-7.612-3.9-11.789-5.584-10.675-4.255-19.958-4.078-31.098-2.482-11.139 1.595-20.794 7.8-30.262 13.296-3.713-11.967-12.254-24.909-25.621-28.632-5.941-1.684-12.254-.088-17.73 2.571-6.777 3.191-12.068 8.687-18.659 11.79 7.519-12.322 17.08-23.934 25.342-35.546 4.549-6.382 10.304-12.056 14.76-18.615 4.549-6.648 7.891-14.006 11.14-21.274 2.785 6.736 3.249 13.828 5.755 20.653 2.321 6.205 3.899 12.588 6.591 18.704 2.785 6.382 5.198 12.676 9.004 18.615 2.135 3.368 7.427 13.917 11.326 7.18 8.633 5.585 16.987 8.953 27.848 8.687 4.92-.089 10.49-.266 15.224-1.33 4.827-1.063 9.376-2.482 14.203-3.545 3.806-.798 7.241-3.014 10.676-4.698 3.991-1.862 7.89-5.23 10.953-8.244 3.806-3.635 7.705-7.18 11.511-10.815 3.806-3.634 3.528-7.268 5.477-11.789 2.135-4.698 2.971-8.864.186-13.562-2.042-3.457-5.663-3.014-6.498-6.471-.836-3.369 0-6.471-2.228-9.485-1.671-2.305-7.612-3.9-7.612-6.205 0-1.95 2.135-3.723 2.042-6.028-.203-2.556-.995-5.039-2.321-7.268-2.228-3.369-5.569-3.457-9.375-2.394-9.191 2.482-18.195 8.776-24.507 15.424-8.633-22.693-15.503-45.828-21.815-68.964-2.785-10.194-5.013-20.565-6.777-31.025-1.763-10.371-4.456-20.742-5.662-31.113-.743-6.205-2.692-12.056-3.621-18.172-.742-5.053-1.299-10.194-2.042-15.335-1.671-11.258-4.084-22.427-5.848-33.685-1.021-6.205-3.249-11.7-5.013-17.639-1.485-5.142-2.414-9.574-4.92-14.361-4.827-9.307-9.747-20.653-19.03-26.504-8.262-5.23-16.338-9.573-26.456-10.725-5.941-.621-10.676.709-16.524 1.329-5.105.532-9.561 3.28-14.481 4.255 0-4.521-.464-4.698 3.899-6.294 2.506-.886 4.92-1.95 7.519-2.747 2.497-.713 4.851-1.822 6.962-3.28 2.692-1.862 1.021-1.241 4.27-.621 5.106.975 3.621-.177 6.962-2.57 1.95-1.419 3.899-.532 6.22-.266 2.135.266 5.663 1.152 7.241-.709 1.206-1.419-.093-3.812.835-5.319 1.393-2.393 5.57-2.305 7.798-3.9 2.413-1.773 2.599-3.723 2.135-6.471-.372-1.862-3.435-6.028-3.249-7.623-.009-.388.141-.762.419-1.044.278-.282.661-.449 1.066-.463 6.034.266 5.755-.621 4.27-5.674-.093.798-.093 1.419-.185 1.951-.05-.656.013-1.314.185-1.951.186-.354.743-.531 1.207-.797l-.464.443c.278 1.064.371 3.9 1.392 4.698.743.532 3.528.532 4.085-.443 1.114-1.95-2.785-3.014-2.971-4.432 4.549-.355 2.971-2.482.65-4.698-.093-.621.279-.887 1.114-.887-.362-.386-.855-.637-1.392-.709.306-.045.594-.168.835-.355.085-.114.137-.248.154-.387.016-.14-.005-.281-.061-.41.093.197.155.406.185.62 3.899 1.507 1.95-6.559.279-7.889.093-2.216.278-4.432.371-6.737-1.1.674-1.895 1.718-2.228 2.925 0-1.063.65-1.95 2.228-2.925-2.506-1.064-2.785-1.152-.093-1.418 2.228 1.95 1.95.354 3.342-.887-.093.089 2.135-2.216 1.95-1.861 1.021-2.482-.093-7.623-4.27-5.939 2.32 1.95 0 2.305-.836 3.989 0 .088-.093.088-.093.177.02-.188.083-.37.186-.532 1.392-2.925 1.764-.709.186-3.989.34.098.699.125 1.051.079s.69-.163.991-.345c1.299-1.507 1.671-.886 2.321-2.748.557-1.684.278-2.836-.836-3.457.093 0 .279.089.371.089.228-.589.21-1.239-.049-1.816s-.739-1.038-1.343-1.287c-.464.798-1.021 1.507-1.485 2.305.185.089.464.089.65.177-1.579-.177-2.228.089-2.414.798-.054-.145-.073-.3-.057-.453.016-.153.067-.301.15-.433.185-.266 1.578.177 1.671-.089 2.413-3.811-.093-6.914-3.992-8.864-1.485-.71-4.363-.798-4.92-2.482-.371-1.241 1.485-4.166 1.857-5.585 2.692-1.152-2.321-1.861-2.321-1.861-.186 1.684-.093 2.482.928 2.305-1.021.177-1.114-.62-.928-2.305 1.485.177 5.848-.177 7.89-1.596 3.528.089 5.292.71 7.427-2.216-2.042-.797-4.549-.354-6.405-1.684.107.346.169.703.185 1.064-.226-.489-.577-.916-1.021-1.241.279.266.186.354-.186.354.057-.042.103-.096.135-.157.032-.061.05-.129.051-.197.093-1.418 1.207-.798 2.321-.71-.028-.447-.189-.877-.464-1.24.224.386.381.806.464 1.24.742-.443 1.392-.886 2.135-1.24.299-.048.566-.208.743-.444 3.341.976 2.32-5.761.742-5.761-.344.007-.674.133-.928.354.1-.748.256-1.488.464-2.216.186-.354.279-.797.464-1.152-.835.088-3.527-1.507-3.62.355-.059-.334-.221-.642-.464-.887.278-2.039-1.021-1.861-2.971-2.482-.742-.177-1.485-1.507-2.321-.975-1.206.798-.464 1.596.279 2.216-.046.331-.16.65-.335.94-.175.288-.408.541-.686.744-.093-.088-.186-.177-.279-.177.616-.329 1.08-.867 1.3-1.507-2.506-1.861-3.62-.62-5.477.886.689.597 1.577.943 2.506.975 0 .09-.092.178-.092.267-.942-.103-1.806-.547-2.414-1.242 2.042-1.595 1.857-2.659-.65-3.545-.835-.355-1.392.443-2.413 0-.557-.178-.929-1.064-1.393-1.33-3.806-2.127-8.354-.886-12.346-1.418.464-.089.928-.089 1.3-.178-.372-1.33-1.486-1.861-2.6-2.304v-2.305c-.185 0-.278-.088-.464-.088.165-.102.29-.253.357-.428.067-.176.072-.369.014-.548-.401.175-.854.208-1.279.095-.424-.114-.793-.367-1.041-.715 1.021 1.33 3.156.62 3.713-1.064.65-1.773-.743-2.925-1.95-4.166 0-1.241-.556-1.684-1.206-1.773 1.299-2.393 1.578-1.24.185-4.255-.092-2.038-1.949-1.33-3.156 0 .093-.266.279-.62.371-.886-.928-.089-1.949-.089-2.877-.177.278.709.742 2.038.093 2.659.464-.62.092-2.039-.093-2.66-1.207-.62-2.321-1.24-3.528-1.86.093.176.372.974.743 1.772-.878-1.128-1.84-2.195-2.878-3.191-.557-.62-2.97-3.457-3.62-3.634-3.992-1.064-6.962 6.293-11.882 5.318-2.878-.62-1.486-1.33-4.27-.798-1.486-1.861-11.14 1.064-11.511 2.837.142-.072.303-.103.464-.089-1.114.355-2.042.975-3.063 1.33-2.693.975-1.114 1.24-4.085-.443-.538-.29-1.146-.443-1.764-.444 1.3-.532 1.95-4.432 1.95-5.761 0-3.28-.372-2.66.928-5.053-.932-.095-1.874-.035-2.785.177.183-.514.277-1.053.279-1.595.649-1.773.092-3.812-1.95-4.255-3.156-.71-3.713 3.546-1.485 4.255-2.135-.71-1.3-3.369-4.27-3.723 1.114-.089 1.764.177 2.785 1.33.371-.621.649-1.33 1.021-1.95-2.321-.267-3.435-.444-5.292.62-1.856.354-3.156 1.595-4.548 2.836-3.806 3.457-7.241 6.737-10.768 10.46-1.764-3.546-3.806-6.116-6.777-2.127-2.727 3.891-4.795 8.17-6.127 12.676-2.784-1.241-1.578-1.596-2.784-3.546 1.206 1.861 0 2.305 2.784 3.546.279-.798.557-1.685.836-2.482-2.414-2.66-2.321-5.23-4.92-7.978-.279.886.557 2.127.65 3.014.185.886-.836 1.506-.65 2.482.928-.355 1.207-.178 1.207.266 0-.355-.279-.532-1.207-.266-.371-1.596.557-2.394 0-4.167-.196-.639-.51-1.24-.928-1.773 1.671-2.659-3.714-4.52-4.92-2.925-.155.156-.281.336-.372.532-2.135-.886-2.785.975-3.713 2.482-.211.461-.459.906-.742 1.33-1.207.975-2.414 3.014-3.342 4.343-1.95 2.837-2.785 7.003-5.292 9.308.093-1.507.929-4.876-1.949-3.546.928-.443 1.114-.975.835-1.596l.557.266c.372 0 .836.09 1.207.09-.093-2.128-1.485-3.547-3.249-4.699v1.596c-.742-1.773-.464-2.305-1.114-2.837.303.078.616.108.929.089-2.136-3.457-5.013-3.99-8.912-3.014.278.088.557.088.835.177-.447.003-.89.093-1.299.266-1.485.71-3.806 4.787-4.827 6.205-3.713 4.964-5.477 11.08-7.427 16.753-.557 1.596-1.392 5.408-3.527 5.94-2.414.62-5.106-3.192-7.241-4.433-6.962-4.077-10.397 3.28-11.418 9.042-1.578 2.57-1.207 4.61 1.114 5.762-.598-.843-.95-1.822-1.021-2.837.278 1.684 1.764 2.216 2.042 2.925.221 1.052.345 2.12.372 3.191 1.206.887 1.299 1.507.278 1.862-.65.443-1.207.886-1.764 1.33-1.671 1.684-1.671 3.989-3.156 5.584-1.671 1.862-3.249 1.064-4.084 4.078-1.393 5.14 2.042 13.03 8.169 13.473-.743 2.039-1.671 4.078-2.228 6.205-.743 2.748-.65 3.103.742 5.762-10.211-1.418-9.468 8.864-3.62 14.006 1.323 1.161 2.913 2.011 4.641 2.482 1.3.354 5.199.177 6.127 1.329 1.95 2.482-2.413 5.673-2.785 8.421-.047.442-.047.888 0 1.33-1.578 1.861-1.578 2.039.743 3.812 1.3 1.595 5.198 1.152 6.312 2.659 1.857 2.305-2.228 5.939-.185 8.598 1.578 2.128 3.341.798 5.941 1.684 1.299.532 2.506 1.064 3.806 1.685.582-.379 1.25-.622 1.949-.71 1.485.71.093 1.951 1.95 2.394.928.266 3.156 1.418 4.177.798-1.393.797-2.321 2.836-3.064 4.964-.742 1.152-1.485 2.482-1.206 3.457-.372 1.197-.87 2.355-1.486 3.457 3.157.443 2.785 3.368 5.013 4.875 2.971 2.482 3.528.177 2.785-.975.279.177.65.355.928.532.093 0-.557 1.507.093 1.861.929.444.836 0 1.764 0 .835 0 2.135-1.241 3.156-1.329.557-.089 2.228.709 2.599.443.188-.089.353-.217.482-.375s.22-.342.264-.538c.045-.196.043-.399-.006-.594-.049-.194-.143-.376-.275-.532l.464.798c1.021 2.571 1.578 1.95 3.063 1.241-.464.177 1.207-.975 1.578-.886-.743-2.039-3.806-1.862-5.662-2.305 1.206.354 3.156.354 4.177.798 1.856.709 1.207 1.506 3.435 1.772.928.089 4.641-.886 5.291-1.507.093-.088.093-.177.185-.177.372-.532.65-1.063 1.022-1.507 1.392.178-.093 2.216 2.042 1.33 1.578-.621.835-1.418.278-2.393-.163-.252-.349-.49-.557-.71 2.228.532 4.92 3.369 7.891 2.571 1.764-.443 1.856-1.596 3.063-2.659 1.671-1.418 2.228-1.153 4.27-1.862 1.207-.443 2.507-1.329 3.806-1.507 2.043-.354 1.486-.088 3.157.71 1.021.443 1.578 1.418 2.877 1.595 1.114.177 2.971-1.064 3.899-.798 2.506.975 1.857 4.344 2.042 6.649-12.903-3.901-27.941 2.304-37.41 10.903-2.599 2.304-4.27 5.052-6.498 7.623-2.506 2.748-4.827 3.989-5.198 7.889-.279 3.368 1.299 5.407 0 8.687-1.207 3.102-2.507 5.85-3.435 9.13-4.177 15.513-4.363 31.557-7.519 47.247-2.634 14.132-7.288 27.852-13.832 40.775-3.156 6.205-5.755 9.928-12.717 12.588-5.57 2.127-9.655-.621-12.439-5.496-7.334-12.942-8.448-26.239-8.355-40.599.156-6.935.683-13.858 1.578-20.742.743-7.091.186-13.828-.371-20.92-1.021-14.271-4.456-26.504-9.562-39.977-2.413-6.383-4.456-12.588-10.304-16.754-3.249-2.305-6.591-5.23-10.397-7.269-3.063-1.595-4.92-3.013-8.447-3.811-2.321-.443-4.456-1.241-6.684-1.862-5.49-1.506-11.184-2.223-16.895-2.127-12.903 0-27.013 4.166-38.617 9.485-5.755 2.659-12.068 6.559-15.874 11.612-1.492 2.109-2.737 4.368-3.713 6.737-1.299 2.748-.835 3.279-3.62 3.191-1.671-.089-3.62-1.596-5.57-1.596-2.135-.088-3.713.621-5.662 1.153-2.496.489-4.883 1.389-7.055 2.659-5.385 3.368-10.026 8.687-14.11 13.296-7.612 8.51-14.389 17.995-21.537 26.682-6.962 8.509-15.41 16.044-26.27 19.944-4.178 1.507-8.727 1.773-12.904 2.925-1.856.532-4.084 1.951-6.034 1.862-3.063 0-2.785-1.507-3.899-3.812-1.268-2.639-3.102-4.994-5.384-6.914C11.821 247.1-.71 260.574.032 271.033c.464 6.028 5.198 10.106 5.012 16.045-.185 5.584.186 11.257 2.228 16.487 2.32 5.939 8.076 12.056 13.182 16.133 4.734 3.723 10.582 4.521 16.524 5.142 2.692.265 5.477 1.063 8.169.975 2.227 0 4.27-.887 6.59-.798 3.9.177 5.941.088 9.655-1.153 2.558-1.005 5.31-1.488 8.076-1.418 0 5.939.371 11.701.928 17.64.093.798.65 2.837.279 3.457-.465.887-1.022.266-1.578.887-1.393 1.507-2.414 2.216-3.435 4.077-2.798 5.216-3.712 11.168-2.6 16.931.836 4.609 3.714 6.471 3.064 11.346-.743 5.762-2.228 11.524-2.506 17.285-.013 2.499-.262 4.991-.743 7.446-.371 1.507-1.578 4.344-1.485 5.851.092.975 1.114 1.418 1.114 2.305 0 .797-.929.709-1.022 1.329-.185 1.95-.278 3.812-.278 5.762.093 2.748-.186 5.407-.093 8.155.093 2.039-.464 6.914 2.042 6.116-.573 1.354-.888 2.795-.928 4.255 0-.177-.093-.266 0-.443.043-1.317.359-2.612.928-3.812l-1.392.444c-.835 2.127.186 4.166.464 6.205v.62c-.14 2.987-.046 5.979.279 8.953.557 6.914.835 14.537 2.784 20.742 2.135 6.737 1.486 15.247 2.321 22.782.928 8.509 2.507 16.93 3.62 25.44 1.022 7.623 1.486 15.867 3.25 23.224 1.392 6.028 2.599 11.967 3.434 18.349 1.021 8.865 4.456 15.513 8.17 23.579 1.577 3.369 1.67 3.369-1.208 5.851-1.206 1.063-2.227 2.216-3.434 3.28-2.338 1.972-5.255 3.21-8.355 3.545-7.983.887-15.966 3.635-20.515 10.194-4.363 6.294-1.485 13.74 1.67 20.211-4.27.354-15.78.088-13.088 7.534 1.856 5.053 11.696 3.369 16.06 3.457 6.312.089 12.717-.177 19.03-.266 2.877 0 3.155-.354 5.94.71 2.394.874 4.975 1.179 7.52.886 3.063-.177 6.034.266 9.004-.177 3.713-.532 6.034-.975 9.747-.355 2.494.37 5.035.34 7.519-.088 2.971-.355 5.756-.178 8.819-.266 7.148-.178 14.296-.089 21.444 0 6.962.088 13.924-.798 20.886-.532 12.068.532 24.321.088 36.482.354 5.57.089 9.933 3.191 15.503 2.925 5.662-.354 11.51-.354 17.173-1.152 9.747-1.329 19.123-3.191 29.056-3.634 6.219-.266 11.789 2.304 17.637 3.9 2.135.621 4.085.355 6.034.709 1.857.443 3.806 1.596 5.755 2.039 4.374 1.048 8.859 1.614 13.368 1.684.557.975 1.114 1.064 1.856.355.279-.178.557-.266.836-.443 1.299-.178 2.228-.71 3.62-.798 2.135-.089 4.27.177 6.313 0 4.191-.461 8.42-.52 12.624-.178 2.692.266 5.106-.088 7.798-.088 0 0 3.713.709 3.713.62.371-.088.836-.975 1.021-1.063-.093-.798.186-1.241.836-1.153.464-.088.835.178.928.709-.186 0 1.114.621 1.207.621.093 0 3.435-.355 3.62-.443.928-.355 1.393-1.33 2.135-1.507.929-.177 1.486.798 2.228.709 1.764-.089 1.485-.798 2.878-1.064 4.641-.798 10.397.266 15.224.266s9.561-.443 14.203-.62c5.662-.266 11.232.797 16.987.088 5.477-.709 10.954-.975 16.431-1.241 11.511-.443 23.3 0 34.626-1.241 11.882-1.329 23.857 0 35.739-.177 12.532-.177 25.064-.355 37.596-.798 12.439-.443 24.878-1.861 37.224-2.216 3.156-.088 6.22-.798 9.376-.975 2.878-.177 5.663.266 8.633 0 5.291-.443 10.119-.089 15.41-.177 5.941-.089 11.696-.975 17.637-1.33 5.941-.354 11.882.443 17.823-.709 3.064-.089 9.098-4.343 4.92-7.889z" clip-rule="evenodd"/>
    <path fill="#101010" fill-rule="evenodd" d="M407.273 117.239c-.024 0-.048.009-.065.026-.018.016-.027.039-.027.062l.092-.088zM456.75 91.177c.743-2.482-1.114-4.254-2.413-6.205-.836 4.344-3.064 4.167 2.413 6.205zM318.991 184.607c0 .088 0 .088.092.177 0-.089 0-.177-.092-.177zM298.29 181.327c.186.355.557 2.925.836 2.925 2.413.089-.557-4.166-2.042-4.432-2.321 1.33 1.206 1.596 1.206 1.507zM298.105 166.524c-.185-1.95-.835-2.216-2.785-1.241.65 1.241 1.3 1.064 2.785 1.241zM271.184 119.1c.928.178 1.856.266 2.784.443-.557-1.152-1.113-2.393-1.67-3.545-.279.975-.743 2.039-1.114 3.102zM100.843 266.779c1.949-3.103 5.663-7.003 9.933-5.674 3.991 1.241 5.105 6.205 6.776 9.308 3.342 6.028 4.363-.443 5.106-4.166-.557-7.358-3.62-19.413-13.739-18.083-7.705.975-14.388 12.853-12.903 19.856 1.207 5.85 3.249 1.329 4.827-1.241zM393.999 127.787c-3.806-1.33-3.806 2.659-3.899 5.584-.093 2.748.278 9.042 3.899 10.017 3.527.975 3.898-4.609 4.455-6.914-.928-2.748-1.392-7.623-4.455-8.687zM398.359 121.848c-2.785-2.394-4.641-3.103-8.169-1.596-1.856.798-4.456 2.482-4.734 4.61-.928 6.737 10.49-1.596 12.903-3.014zM399.01 161.914c6.498 1.596 7.148-5.358 0-5.358-2.152 0-6.589-1.957-6.687-.931-.127 1.318 4.651 5.74 6.687 6.289zM349.349 135.499c-2.413.355-3.249 1.773-2.785 4.078.557 2.659 2.135 2.659 4.827 2.925 6.591.089 2.321-7.623-2.042-7.003zM406.81 121.139c.557 1.596 3.899 2.305 5.57 1.684 2.042-.709 2.414-2.482.65-4.077-1.578-1.419-3.713-.975-5.663-.887 0 .621-.928 2.305-.557 3.28zM203.049 302.147c3.064 0 .186-4.964-2.413-5.318.093 1.507 0 5.318 2.413 5.318z" clip-rule="evenodd"/>
</svg>
