<svg xmlns="http://www.w3.org/2000/svg" width="107" height="50" fill="none" viewBox="0 0 107 50">
    <path fill="#101010" d="M28.89 20.281c-.047.174-.126.332-.268.459-.395.395-1.011.395-1.406 0-.095-.095-.174-.206-.221-.332-.016-.048-.032-.08-.047-.127.047-.173.126-.331.268-.458.395-.395 1.011-.395 1.406 0 .079.079.142.158.19.253.047.063.063.126.078.205z"/>
    <path fill="#101010" d="M21.783 49.715c-.11 0-.221-.032-.316-.079-3.822-2.04-6.207-6.007-6.207-10.338 0-3.288 1.39-6.45 3.838-8.663.79-.711 1.674-1.328 2.622-1.802 1.627-.822 3.396-1.233 5.228-1.233.253 0 .49.047.743.11.3.08.632.127.948.127.126 0 .252 0 .394-.016 1.643-.174 2.954-1.502 3.128-3.146.016-.11.016-.22.016-.347 0-.316.205-.617.521-.696.426-.095.806.237.806.648 0 .174-.016.348-.032.522-.237 2.26-2.053 4.078-4.312 4.331-.19.016-.364.032-.537.032-.458 0-.9-.063-1.327-.19-.11-.031-.237-.047-.363-.047-1.627 0-3.191.363-4.644 1.09-.838.427-1.627.965-2.322 1.597-2.164 1.96-3.396 4.758-3.396 7.683 0 3.636 1.88 6.971 4.96 8.852.173.11.41.127.6.063 6.192-2.086 11.483-6.275 14.958-11.855 2.07-3.32 3.396-6.956 3.965-10.829.095-.68.174-1.375.221-2.07.063-.918.032-1.834-.174-2.72-.758-3.414-3.222-6.26-6.602-7.477-.285-.095-.569-.19-.838-.253-.126-.031-.236-.063-.363-.095-.268-.063-.474-.268-.505-.537-.016-.126-.048-.253-.095-.364-.205-.569-.648-1.011-1.2-1.2-.048.015-.08.03-.111.046-.6.238-1.027.76-1.169 1.376-.063.269-.284.474-.569.506-.41.047-.805.126-1.2.221-.269.063-.521.142-.758.221-.521.174-1.011.38-1.485.633-.253.126-.553.094-.758-.111-.427-.411-1.011-.6-1.596-.537-.347.553-.41 1.248-.126 1.849.11.253.047.537-.142.727-.38.395-.742.806-1.058 1.265-.111.174-.237.348-.348.521 0 .016-.016.016-.016.032.127.237.237.474.348.727.11.253.22.522.316.79.52 1.107 1.342 2.008 2.385 2.64.948.57 2.053.886 3.175.886.537 0 1.074-.064 1.58-.206.536-.142 1.042-.348 1.516-.632.079-.047.142-.063.22-.08.57-.11 1.154.175 1.407.696.158.332.031.728-.3.902-.3.157-.68.047-.853-.238-.522.285-1.075.506-1.659.664-.616.158-1.264.253-1.927.253-1.358 0-2.701-.363-3.854-1.075-1.28-.774-2.29-1.897-2.922-3.256 0-.016-.016-.032-.016-.063-.08-.238-.174-.49-.284-.727-.143-.332-.3-.649-.474-.949-.111-.205-.111-.458 0-.648.079-.127.158-.269.236-.395.127-.19.253-.395.395-.585.269-.395.585-.759.9-1.123-.3-1.027-.078-2.15.617-2.987.095-.11.221-.19.363-.222.916-.22 1.911-.031 2.67.522.41-.19.837-.364 1.279-.521.269-.095.569-.174.869-.254.3-.079.616-.142.932-.19.316-.837.98-1.517 1.816-1.864.158-.064.316-.111.474-.159.11-.031.206-.015.316 0 1.074.27 1.927 1.06 2.29 2.103.016.047.032.11.048.158.3.079.616.174.932.285 4.107 1.47 7.013 5.09 7.613 9.342.016.6.048 1.201.063 1.786-.047.854-.142 1.723-.252 2.577-.585 4.047-1.99 7.856-4.154 11.334-3.76 6.023-9.541 10.496-16.27 12.615-.032.031-.095.047-.174.047z"/>
    <path fill="#101010" d="M21.782 49.873c-.142 0-.268-.031-.395-.094-3.87-2.071-6.286-6.086-6.286-10.481 0-3.335 1.421-6.529 3.885-8.773.806-.727 1.69-1.344 2.67-1.834 1.659-.838 3.443-1.249 5.307-1.249.253 0 .506.032.79.11.3.08.6.127.916.127.127 0 .253 0 .38-.015 1.563-.174 2.827-1.439 2.985-3.004.016-.11.016-.221.016-.332 0-.348.189-.648.473-.774-.205-.016-.41-.111-.553-.27-.49.254-1.026.46-1.563.617-.632.174-1.296.253-1.959.253-1.39 0-2.748-.38-3.933-1.09-1.311-.79-2.354-1.945-2.985-3.32l-.032-.063c-.079-.253-.174-.49-.284-.728-.142-.331-.3-.648-.474-.932-.142-.253-.142-.553 0-.806.079-.143.158-.285.237-.396.126-.205.252-.395.395-.6.268-.364.552-.728.853-1.075-.285-1.06-.032-2.197.663-3.051.11-.142.268-.237.442-.285.932-.237 1.927-.047 2.733.49.395-.19.806-.347 1.216-.49.285-.095.569-.174.869-.253.284-.063.569-.126.853-.173.347-.854 1.027-1.534 1.88-1.882.158-.063.331-.126.505-.158.126-.031.269-.031.395 0 1.122.285 2.022 1.107 2.4 2.198.017.031.017.047.033.079.284.079.568.174.852.268 4.139 1.486 7.108 5.122 7.725 9.47v.015l.063 1.786c-.048.886-.142 1.755-.269 2.593-.584 4.062-1.99 7.904-4.17 11.397-3.775 6.055-9.588 10.56-16.364 12.678-.095.032-.174.047-.269.047zm5.197-22.115c-1.816 0-3.554.411-5.165 1.218-.948.474-1.817 1.075-2.59 1.786-2.402 2.181-3.776 5.295-3.776 8.552 0 4.268 2.338 8.188 6.113 10.196.127.063.269.079.395.032 6.713-2.103 12.447-6.545 16.19-12.536 2.149-3.462 3.539-7.256 4.123-11.271.127-.838.206-1.707.253-2.56l-.063-1.771c-.6-4.237-3.491-7.762-7.519-9.216-.316-.11-.616-.206-.916-.285l-.079-.016-.032-.079-.047-.142c-.347-.996-1.153-1.739-2.18-2.008-.079-.015-.158-.015-.237 0-.158.032-.316.08-.458.143-.805.332-1.437.98-1.737 1.77l-.032.08-.095.015c-.3.047-.616.11-.916.19-.3.079-.584.158-.853.253-.426.142-.853.316-1.264.505l-.079.048-.078-.048c-.727-.521-1.69-.695-2.544-.49-.11.032-.205.08-.268.174-.648.79-.869 1.85-.584 2.846l.031.079-.063.063c-.316.348-.616.711-.885 1.107-.126.19-.268.379-.379.584-.079.127-.158.253-.237.396-.095.158-.079.347 0 .505.174.3.332.633.49.965.11.237.205.49.284.743l.016.047c.616 1.312 1.611 2.419 2.86 3.178 1.136.68 2.447 1.043 3.774 1.043.632 0 1.264-.08 1.88-.237.569-.143 1.106-.364 1.611-.648l.127-.064.079.127c.142.221.426.3.647.19.253-.127.348-.427.237-.68-.221-.459-.727-.712-1.232-.617-.063.016-.126.032-.174.063-.49.285-1.01.506-1.564.649-.52.142-1.074.205-1.627.205-1.153 0-2.274-.316-3.253-.9-1.075-.649-1.928-1.582-2.449-2.72v-.016c-.095-.268-.205-.521-.316-.79-.11-.253-.22-.49-.347-.727l-.048-.08.064-.11c.11-.19.236-.363.347-.537.316-.459.68-.886 1.074-1.28.142-.143.19-.38.11-.554-.3-.632-.236-1.407.143-2.008l.047-.063.08-.016c.631-.079 1.263.143 1.721.585.158.143.38.174.585.08.49-.254.995-.475 1.516-.649.237-.079.505-.158.774-.221.395-.095.805-.174 1.216-.237.206-.032.38-.19.427-.396.142-.68.616-1.232 1.263-1.501.048-.016.08-.032.127-.048l.047-.015.047.015c.616.206 1.09.68 1.296 1.297.047.126.079.268.094.395.032.205.174.363.38.41.126.032.236.064.363.096.268.079.553.158.853.268 3.412 1.233 5.907 4.063 6.697 7.588.19.838.253 1.77.174 2.767-.047.695-.126 1.39-.221 2.086-.569 3.889-1.911 7.54-3.98 10.892-3.492 5.596-8.83 9.816-15.038 11.919-.253.079-.521.047-.743-.08-3.159-1.928-5.039-5.28-5.039-8.994 0-2.956 1.264-5.801 3.444-7.793.71-.648 1.5-1.186 2.37-1.628 1.468-.743 3.048-1.107 4.707-1.107.126 0 .268.016.41.063.41.111.853.174 1.28.174.173 0 .347-.016.52-.031 2.18-.238 3.95-2.008 4.17-4.19.017-.158.032-.332.032-.505 0-.158-.063-.3-.189-.395-.126-.095-.268-.127-.426-.095-.222.047-.395.268-.395.537 0 .127-.016.237-.016.364-.174 1.723-1.564 3.098-3.27 3.288-.142.015-.284.015-.41.015-.332 0-.68-.047-.996-.126-.237-.079-.458-.11-.679-.11zm0 1.328c-1.611 0-3.143.364-4.565 1.075-.837.411-1.611.949-2.29 1.58-2.133 1.93-3.349 4.696-3.349 7.557 0 3.588 1.832 6.845 4.88 8.71.143.08.317.11.475.048 6.144-2.071 11.42-6.26 14.863-11.777 2.054-3.304 3.38-6.924 3.934-10.765.094-.68.173-1.376.22-2.055.064-.965.017-1.866-.173-2.672-.758-3.414-3.19-6.18-6.508-7.366-.284-.095-.553-.19-.821-.253-.127-.032-.237-.063-.348-.095-.331-.08-.584-.348-.631-.68-.016-.11-.048-.237-.08-.332-.173-.506-.552-.9-1.058-1.09-.016 0-.031.015-.063.015-.553.222-.948.696-1.074 1.265-.079.332-.348.585-.695.632-.395.048-.806.127-1.185.222-.268.063-.521.142-.758.22-.505.175-.995.38-1.469.617-.316.159-.695.111-.948-.126-.363-.348-.884-.538-1.39-.506-.284.49-.316 1.122-.079 1.644.142.3.08.664-.173.917-.38.38-.727.806-1.043 1.249-.11.142-.205.3-.316.458.11.221.221.443.316.664.11.253.221.522.316.79.505 1.075 1.311 1.96 2.322 2.577.932.553 1.99.854 3.08.854.521 0 1.043-.064 1.532-.206.521-.142 1.027-.348 1.485-.616.095-.048.19-.08.284-.11.632-.127 1.28.189 1.564.774.206.41.032.9-.379 1.106h-.016c.174.016.332.08.474.19.19.158.3.395.3.648 0 .174-.016.364-.031.538-.253 2.34-2.117 4.22-4.455 4.473-.19.016-.379.032-.553.032-.473 0-.932-.064-1.374-.19-.016 0-.126-.016-.22-.016zM21.561 8.441c2.33 0 4.218-1.89 4.218-4.22C25.779 1.89 23.89 0 21.56 0c-2.329 0-4.217 1.89-4.217 4.22 0 2.332 1.888 4.221 4.217 4.221z"/>
    <path fill="#101010" d="M33.55 24.296c0-.585-.11-1.154-.3-1.691-.015-.032-.015-.048-.03-.08l-.017-.03c0-.017-.016-.048-.031-.064-.269-.538-.853-.822-1.438-.68-.063.016-.158.063-.22.095-.08.047-.159.095-.238.126-.379.19-.774.348-1.184.459-.016 0-.048.016-.064.031-.031 0-.047 0-.079.016-1.595.411-3.3.143-4.675-.695-1.059-.633-1.896-1.565-2.401-2.672-.11-.221-.19-.458-.269-.695 0-.016-.015-.032-.015-.064-.158-.379-.348-.742-.537-1.075-2.101-3.667-6.003-5.927-10.204-5.927-6.445 0-11.69 5.248-11.69 11.697 0 .348.016.696.048 1.044 0 .047-.016.11 0 .158.553 5.928 2.86 11.492 6.666 16.076 3.76 4.537 8.72 7.825 14.342 9.485.064.016.127.032.19.032s.142-.016.205-.032c.127-.032.237-.08.363-.11.206-.064.38-.222.459-.412.11-.316-.032-.664-.316-.822-3.396-1.802-5.497-5.311-5.497-9.152 0-2.91 1.232-5.707 3.396-7.683.695-.632 1.485-1.17 2.322-1.597 1.453-.727 3.001-1.09 4.644-1.09.126 0 .237.015.363.047.427.127.869.19 1.327.19.174 0 .347-.016.537-.032 2.243-.253 4.012-1.992 4.296-4.236v-.08c.016-.031.016-.078.016-.11.016-.158.032-.3.032-.427zm-4.485 3.525c-.142.016-.269.016-.395.016-.332 0-.648-.047-.948-.126-.237-.064-.49-.111-.742-.111-1.848 0-3.602.411-5.229 1.233-.947.474-1.832 1.09-2.622 1.802-2.432 2.213-3.838 5.375-3.838 8.663 0 3.082 1.2 5.99 3.285 8.14-4.138-1.754-7.771-4.473-10.677-7.966C4.36 35.204 2.18 30.066 1.58 24.58l-.031-.474c-.032-.348-.048-.712-.048-1.06 0-5.722 4.644-10.37 10.362-10.37 3.712 0 7.172 2.008 9.004 5.249.174.284.316.6.458.917.095.284.205.569.332.822.631 1.359 1.642 2.481 2.922 3.256 1.532.917 3.38 1.265 5.165.948.49.838 1.327 1.407 2.275 1.565-.443 1.297-1.58 2.23-2.954 2.387z"/>
    <path fill="#101010" d="M21.387 50c-.079 0-.158-.016-.237-.032-5.654-1.675-10.63-4.98-14.421-9.532C2.922 35.805.6 30.21.047 24.25v-.174C.016 23.743 0 23.395 0 23.048c0-6.545 5.323-11.856 11.847-11.856 4.249 0 8.198 2.292 10.299 5.991.205.348.379.711.552 1.09l.032.064c.079.253.174.474.268.696.506 1.09 1.312 1.991 2.354 2.608 1.358.822 3.017 1.059 4.565.68.032 0 .047-.016.079-.016.016-.016.047-.016.063-.016.395-.11.79-.269 1.153-.459.08-.047.158-.078.237-.126.063-.047.19-.095.269-.11.647-.143 1.327.173 1.61.774.017.032.017.047.032.079l.016.032c.016.031.016.047.032.079.205.553.316 1.154.316 1.754 0 .143 0 .285-.016.443 0 .047-.016.079-.016.126v.08c-.284 2.323-2.116 4.125-4.438 4.378-.19.016-.38.032-.553.032-.474 0-.932-.063-1.375-.19-.11-.032-.22-.047-.315-.047-1.611 0-3.144.363-4.565 1.075-.838.41-1.612.948-2.29 1.58-2.133 1.929-3.35 4.695-3.35 7.557 0 3.778 2.07 7.24 5.418 9.01.364.19.522.616.395 1.012-.078.237-.284.426-.552.521-.127.032-.253.08-.364.111-.142-.016-.22 0-.316 0zm-9.54-38.492C5.48 11.508.316 16.693.316 23.048c0 .332.016.68.047 1.027v.158c.553 5.897 2.844 11.43 6.634 15.998 3.744 4.52 8.672 7.777 14.264 9.437.095.032.205.032.3 0 .127-.032.237-.079.363-.11.174-.048.3-.175.348-.317.079-.237-.016-.506-.237-.616-3.444-1.834-5.576-5.39-5.576-9.295 0-2.956 1.264-5.802 3.444-7.793.71-.649 1.5-1.186 2.369-1.629 1.469-.743 3.049-1.106 4.707-1.106.126 0 .269.016.41.063.411.11.854.174 1.28.174.174 0 .348-.016.521-.032 2.18-.237 3.886-1.928 4.155-4.11v-.095c0-.031.016-.063.016-.095.015-.158.015-.284.015-.41 0-.57-.094-1.123-.3-1.645-.016-.031-.016-.047-.031-.079l-.016-.031c0-.016-.016-.032-.016-.048-.237-.474-.758-.71-1.264-.6-.047.016-.126.047-.173.079-.08.047-.158.095-.253.142-.38.206-.79.364-1.216.474 0 0-.016 0-.016.016l-.08.016h-.047c-1.627.41-3.38.158-4.801-.711-1.09-.648-1.943-1.597-2.465-2.751-.11-.221-.205-.458-.284-.711l-.016-.048c-.158-.363-.331-.727-.537-1.059-2.022-3.604-5.876-5.833-10.014-5.833zm7.376 36.39l-.71-.3c-4.123-1.755-7.835-4.538-10.726-8.015-3.57-4.3-5.765-9.47-6.365-14.986l-.032-.474c-.032-.364-.047-.712-.047-1.075 0-5.802 4.723-10.528 10.52-10.528 3.775 0 7.281 2.039 9.145 5.327.174.3.332.616.474.933.095.3.206.569.332.822.616 1.328 1.611 2.434 2.859 3.193 1.516.917 3.301 1.249 5.055.932l.11-.015.063.095c.474.79 1.264 1.343 2.164 1.501l.174.032-.063.174c-.458 1.343-1.675 2.323-3.096 2.482-.142.015-.284.015-.41.015-.333 0-.68-.047-.996-.126-.253-.063-.474-.095-.695-.095-1.816 0-3.554.411-5.165 1.217-.948.474-1.817 1.075-2.59 1.787-2.402 2.181-3.776 5.295-3.776 8.552 0 3.019 1.153 5.864 3.238 8.03l.537.522zm-7.376-35.062c-5.623 0-10.204 4.584-10.204 10.212 0 .348.016.695.047 1.043l.032.474c.6 5.438 2.78 10.56 6.286 14.796 2.702 3.257 6.113 5.88 9.92 7.62-1.832-2.15-2.827-4.853-2.827-7.699 0-3.335 1.421-6.528 3.885-8.773.806-.727 1.69-1.344 2.67-1.834 1.658-.838 3.443-1.248 5.307-1.248.253 0 .506.031.79.11.3.08.6.127.916.127.127 0 .253 0 .38-.016 1.231-.142 2.305-.949 2.764-2.103-.885-.205-1.659-.743-2.149-1.517-1.785.284-3.617-.063-5.165-.996-1.31-.79-2.338-1.944-2.985-3.32-.127-.268-.237-.537-.332-.837-.126-.3-.284-.601-.458-.886-1.817-3.177-5.213-5.153-8.877-5.153z"/>
    <path fill="#101010" d="M12.416 24.66h-.158c-.237 0-.41.19-.41.41 0 2.056-1.659 3.715-3.712 3.715-2.054 0-3.712-1.66-3.712-3.714 0-.237-.19-.411-.411-.411h-.158c-.237 0-.41.19-.41.41 0 2.593 2.116 4.711 4.706 4.711 2.59 0 4.708-2.118 4.708-4.71-.016-.222-.206-.411-.443-.411z"/>
    <path fill="#101010" d="M8.135 29.956c-2.685 0-4.865-2.182-4.865-4.87 0-.315.253-.568.568-.568h.158c.316 0 .569.253.569.569 0 1.96 1.595 3.557 3.554 3.557 1.959 0 3.554-1.597 3.554-3.557 0-.316.253-.57.569-.57h.158c.316 0 .568.254.568.57.032 2.671-2.148 4.869-4.833 4.869zm-4.297-5.138c-.142 0-.252.11-.252.253 0 2.513 2.037 4.553 4.549 4.553 2.511 0 4.549-2.04 4.549-4.553 0-.142-.11-.253-.253-.253h-.158c-.142 0-.252.11-.252.253 0 2.134-1.738 3.873-3.87 3.873-2.133 0-3.886-1.723-3.886-3.873 0-.142-.11-.253-.253-.253h-.174zM47.087 43.092c-.442 0-.853-.11-1.248-.348-.395-.237-.6-.553-.6-.964 0-.079.016-.174.031-.285.032-.126.08-.284.174-.474l9.54-22.668c.143-.285.348-.522.6-.712.254-.173.633-.268 1.138-.268.553 0 .964.095 1.216.268.253.174.443.412.57.712l9.477 22.59c.094.189.157.347.157.458.016.11.016.205.016.316 0 .442-.205.774-.6 1.011-.395.238-.821.364-1.295.364-.332 0-.6-.095-.806-.269-.19-.174-.347-.41-.474-.664l-2.796-6.544H51.084l-2.827 6.576c-.237.585-.632.901-1.17.901zm9.62-21.514l-4.47 11.334h8.86l-4.39-11.334zM71.302 43.092c-.506 0-.9-.111-1.17-.332-.268-.222-.394-.601-.394-1.17v-22.4c0-.553.158-.948.458-1.201.3-.237.71-.364 1.216-.364h6.492c3.317 0 5.75.648 7.298 1.96 1.548 1.313 2.322 3.178 2.322 5.628 0 .68-.11 1.454-.348 2.324-.237.87-.679 1.691-1.358 2.466-.68.774-1.611 1.422-2.812 1.96-1.2.537-2.764.806-4.707.806h-5.402v8.82c0 .554-.142.95-.41 1.17-.285.222-.68.333-1.185.333zm6.16-13.042c1.28 0 2.354-.11 3.222-.348.87-.237 1.564-.553 2.085-.98.522-.427.9-.932 1.122-1.517.237-.6.347-1.25.347-1.976 0-.696-.11-1.344-.331-1.945-.221-.6-.585-1.106-1.09-1.549-.506-.442-1.17-.774-1.99-1.011-.822-.238-1.833-.364-3.05-.364h-4.896v9.69h4.581zM85.928 43.092c-.442 0-.853-.11-1.247-.348-.395-.237-.6-.553-.6-.964 0-.079.015-.174.03-.285.032-.126.08-.284.175-.474l9.54-22.668c.142-.285.348-.522.6-.712.253-.173.632-.268 1.138-.268.553 0 .963.095 1.216.268.253.174.442.412.569.712l9.477 22.59c.095.189.158.347.158.458.016.11.016.205.016.316 0 .442-.205.774-.6 1.011-.395.238-.822.364-1.296.364-.331 0-.6-.095-.805-.269-.19-.174-.348-.41-.474-.664l-2.796-6.544H89.925l-2.828 6.576c-.237.585-.647.901-1.169.901zm9.604-21.514l-4.47 11.334h8.861l-4.39-11.334z"/>
</svg>
