<svg xmlns="http://www.w3.org/2000/svg" width="24" height="24" fill="none" viewBox="0 0 24 24">
    <path fill="#101010" d="M12 21.35l-1.45-1.32C5.4 15.36 2 12.28 2 8.5 2 5.42 4.42 3 7.5 3c1.74 0 3.41.81 4.5 2.09C13.09 3.81 14.76 3 16.5 3 19.58 3 22 5.42 22 8.5c0 3.78-3.4 6.86-8.55 11.54L12 21.35z"/>
    <path fill="#fff" d="M12.499 11.267c-1.45-.394-1.915-.8-1.915-1.434 0-.726.644-1.233 1.723-1.233 1.137 0 1.558.567 1.597 1.4h1.41c-.044-1.147-.714-2.2-2.049-2.54V6H11.35v1.44c-1.239.28-2.235 1.12-2.235 2.407 0 1.54 1.22 2.306 3 2.753 1.597.4 1.916.987 1.916 1.607 0 .46-.312 1.193-1.724 1.193-1.315 0-1.832-.613-1.902-1.4H9c.077 1.46 1.124 2.28 2.35 2.553V18h1.915v-1.433c1.245-.247 2.235-1 2.235-2.367 0-1.893-1.552-2.54-3.001-2.933z"/>
</svg>
