<svg xmlns="http://www.w3.org/2000/svg" width="24" height="24" fill="none" viewBox="0 0 24 24">
    <path fill="#101010" fill-rule="evenodd" d="M9 8c1.38 0 2.5-1.12 2.5-2.5S10.38 3 9 3 6.5 4.12 6.5 5.5 7.62 8 9 8zm-4.5 4C5.88 12 7 10.88 7 9.5S5.88 7 4.5 7 2 8.12 2 9.5 3.12 12 4.5 12zm13-6.5C17.5 6.88 16.38 8 15 8s-2.5-1.12-2.5-2.5S13.62 3 15 3s2.5 1.12 2.5 2.5zm2 6.5c1.38 0 2.5-1.12 2.5-2.5S20.88 7 19.5 7 17 8.12 17 9.5s1.12 2.5 2.5 2.5zm-3.056 1.806l.896 1.054.236.235c1.259 1.25 2.666 2.646 2.374 4.565-.29 1.01-1.02 2.03-2.33 2.32-.336.064-1.01-.024-1.883-.137-1.023-.134-2.318-.303-3.657-.303h-.18c-1.327 0-2.612.169-3.63.303-.886.117-1.57.207-1.91.137-1.31-.29-2.04-1.3-2.33-2.32-.282-1.908 1.124-3.304 2.382-4.553l.238-.237c.564-.654 1.067-1.246 1.584-1.855l.896-1.055c.47-.54 1.05-1.08 1.75-1.32.11-.04.22-.07.33-.09.26-.05.53-.05.79-.05s.53 0 .78.04c.11.02.22.05.33.09.7.24 1.29.78 1.75 1.32.564.654 1.067 1.246 1.584 1.856z" clip-rule="evenodd"/>
</svg>
