<svg xmlns="http://www.w3.org/2000/svg" width="643" height="482" fill="none" viewBox="0 0 643 482">
    <path fill="#fff" fill-rule="evenodd" d="M584.189 467.081c3.607 1.839 7.002 1.839 10.609 3.324 3.537 1.414 4.456 7.423 7.497 8.13-14.004 1.485-27.867 4.596-42.084 3.041 1.202-5.02-.99-10.111 1.98-14.848 7.922-7.495 13.086-4.313 21.998.353zm-59.202-344.325c.213 3.535.425 4.949 2.971 7.212 1.981 1.767 3.042-.849 3.254 2.616.141 1.98-1.981 3.04-2.759 4.666-4.031 8.06-1.273 18.525.708 26.585 4.031 16.332 13.792 34.079 6.931 50.623-.707 1.697-1.273 5.303-2.617 6.576-1.768-.919-3.041-.495-3.89 1.202-.495.565-.99 1.131-1.485 1.626-3.113 2.899-6.437 3.959-10.539 2.404-8.276-3.04-9.69-12.727-9.69-20.292-.071-8.343 1.697-17.11 3.607-25.241.919-3.889 2.334-8.485-.283-12.161-2.475-3.465-5.517-1.556-7.992-3.111-2.617-1.626 1.131-13.858-1.415-17.11-4.456-5.657-6.012 8.201-6.083 10.959-.071 3.111.071 6.717 1.556 9.474 1.132 2.192 4.881 4.101 5.517 6.363.566 2.051-2.051 7.495-2.405 9.687-.575 3.436-.906 6.91-.99 10.393-.636 11.737 1.273 24.11 9.337 33.231 3.536 4.03 9.548 8.555 15.207 7.848 4.951-.637 9.972-3.323 14.57-5.162 3.112 11.949 7.78 23.545 12.802 34.857 4.315 9.828 8.417 19.868 12.944 29.625 9.619 20.433 25.18 37.897 37.345 56.775 11.741 18.241 18.319 39.24 19.946 60.804.354 5.091-1.132 12.091.071 16.828 1.131 4.454 2.122 6.434 1.344 11.312-.778 5.445-2.405 10.394-1.698 15.909.566 4.878 2.9 12.161.354 16.686-3.042-3.253-6.083-4.808-7.993-9.121-1.909-4.384-1.131-8.06-5.446-9.969-3.678-1.626-6.295-1.273-9.478-4.03-3.764-3.258-6.678-7.383-8.487-12.02-3.36-7.946-3.712-16.843-.991-25.029 2.264-6.646 8.771-19.019 17.895-14.565-1.344-2.757-2.263-5.797-4.88-7.636-2.264-1.555-5.659-2.121-8.134-3.888-2.871-2.127-5.924-3.996-9.124-5.586-1.18-.487-2.384-.912-3.608-1.273-1.485-.495-4.385-.141-4.597-.141-5.376-.849-11.388-3.394-14.712-7.353-2.458-2.815-4.659-5.844-6.578-9.05-2.475-4.384-3.395-4.101-8.134-5.162-6.861-1.484-11.175-2.545-16.692-7.636-6.083-5.656-10.539-12.655-14.995-19.584-2.617-4.03-4.88-4.313-9.124-5.939-2.476-.92-5.871-5.162-8.134-5.445-.637-.07-3.749 1.344-4.81 1.485-1.78.271-3.589.294-5.375.071-4.315-.424-8.134-1.626-11.034-4.949-8.912-10.394-11.671-34.928.566-43.766 2.334-1.697 5.587-2.474 6.931-5.232 1.556-3.181.849-9.262.708-12.656-.093-3.973-.4-7.938-.92-11.878-.202-1.463-.607-2.891-1.202-4.242-1.415-3.465-1.839-2.97-4.739-3.818-4.173-1.202-6.083-.707-8.629-4.667-2.051-3.181-2.971-7.141-3.183-10.888-.142-3.464 1.414-6.717.071-9.828-1.91-4.595-5.447-8.13-7.073-13.15-1.344-4.243-4.739-13.717-1.344-17.676 1.485-1.768 4.173-2.051 5.658-4.384 2.617-4.101 3.607-6.363 7.497-9.545 2.83-2.404 5.588-5.939 8.983-7.353 3.395-1.414 6.507.848 9.266.212 2.97-.707 2.193-7.565 3.041-10.676 1.248-4.348 3.419-8.375 6.366-11.808.99-1.06 2.193-1.272 2.9-2.757.99-1.98.636-4.737 1.414-6.929.92-2.545 3.254-7 5.8-8.414 7.71-4.1 9.973 6.505 15.702 5.091zm-17.611 304.237c1.061 2.828.495 7.424 1.697 9.898.99 1.98 4.881 3.182 6.79 5.515 4.103 5.02 5.659 13.009 4.173 19.231-5.021-1.272-8.346-2.05-13.438-1.343-.566-11.171-.071-22.06.778-33.301zm-62.031 8.484c3.395 3.818 5.093 8.272 4.598 13.363-.206 2.066-.633 4.105-1.273 6.08-.566 1.909-3.466 5.515-2.334 6.505-3.183-.212-6.932.212-9.195-1.909-2.052-1.838-3.466-6.575-4.315-9.121 1.627-3.181 3.183-6.434 4.81-9.615 1.061 1.626 4.102 6.01 6.648 4.596 1.91-1.061.354-7.849 1.061-9.899zm119.817-29.695c3.89 3.606 5.234 10.181 5.022 15.272.071 6.999-2.334 20.998-11.458 21.493-7.286.354-15.137-10.11-15.915-16.544-.919-7.071 1.415-24.039 10.751-25.524 3.395-.566 9.125 3.04 11.6 5.303zm-65.425 9.05c.2 4.524.153 9.056-.142 13.575-.283 3.818.708 8.343-.141 12.019-5.446-6.08-12.519-12.656-12.307-21.564.212-8.414 7.214-7.707 12.59-4.03zm-54.533-101.106l4.527 4.949c.141 7 0 13.858 2.122 20.575 2.263 7.07 6.012 13.928 9.69 20.292 7.214 12.443 8.912 24.18 9.76 38.392-13.58-6.081-20.936-26.797-25.392-39.806-2.334-6.859-4.809-13.717-7.073-20.646-2.192-6.787-6.083-15.696-3.536-22.908 4.951 3.677 7.073 5.515 9.902-.848zm84.522 48.927c6.649 5.232 7.144 13.292 9.478 20.645-1.445 1.008-2.816 2.118-4.102 3.323-.778.778-2.546 3.959-3.183 4.242-2.334 1.273-4.385-.353-6.649-2.474-4.526-4.101-7.356-12.868-7.143-18.878.212-7 5.234-11.878 11.599-6.858zm92.586-30.898c8.629 4.949 6.366 18.524 5.305 26.231-.707 4.808.849 9.757.707 14.282-.141 5.162-2.829 4.101-4.527 7.283-1.485-3.889-4.243-8.555-4.88-12.656l-.99-2.616c.376-.124.706-.36.946-.675.24-.316.379-.697.398-1.093.282-1.991.424-3.999.424-6.01.378-8.293 1.252-16.557 2.617-24.746zm-131.063 9.192c-.919 3.606-1.627 10.464-7.002 8.343-4.244-1.697-5.234-8.343-5.234-12.091 0-3.04.495-8.696 4.81-8.908 5.234-.212 7.073 9.12 7.426 12.656zm-40.74-101.035c-3.537 5.726-6.012 14.14-4.315 20.857 1.768 7.07 7.285 8.767 12.166 3.606 4.031 6.363-4.244 17.605-11.6 11.595-1.627-1.272-2.688-3.818-4.668-4.595-1.627-.637-3.042.212-4.739-.142-5.093-1.131-7.002-6.151-8.983-10.323.566-3.393 1.132-6.787 1.839-10.181.425-1.767.778-3.606 1.203-5.373.707-3.041.495-2.687 2.687-4.172 5.8-4.03 9.832-4.242 16.41-1.272zm3.041 3.11l4.244 9.475c-2.334-.566-4.881 6.434-6.366 7.777-.707-5.798.99-11.595 2.122-17.252zm-2.405-32.452c3.89 1.626 4.598 8.696 4.739 12.09-1.061 3.606-2.051 8.201-6.507 5.656-2.971-1.697-4.244-7.212-4.385-10.252-.142-3.818 1.344-9.545 6.153-7.494z" clip-rule="evenodd"/>
    <path fill="#101010" fill-rule="evenodd" d="M422.217 113.19c-1.556.707 1.415 6.08 1.91 7.07 1.202 2.545 2.758 7.848 5.658 6.363-2.475-4.454-5.022-8.979-7.568-13.433zM48.762 423.083c-2.122-.919-4.951 7.141-5.375 8.838-1.061 4.595-.142 7.706 3.536 10.676-1.556-6.576.283-13.151 1.84-19.514zM539.841 75.717c-2.617-3.464-6.436-9.828-11.812-6.434-2.122 1.343-3.748 5.586-5.021 7.707-2.109 3.179-3.977 6.511-5.588 9.969 2.617-1.06 4.173-3.465 6.578-4.737 1.627-.849 3.112-.99 4.668-1.626 3.395-1.485 8.134-2.829 11.175-4.879zM108.458 413.962c1.415 5.586 2.759 11.171 3.89 16.827.779 3.818 3.254 9.262 1.981 13.01 3.395-.424 6.79-.919 10.185-1.344-2.546-5.727-3.819-11.878-4.597-18.1-.425-3.818.141-4.878-2.759-6.999-2.192-1.556-6.083-2.404-8.7-3.394zM89.644 199.589c6.507 6.576 12.236 14 19.239 20.08 3.607 3.182 7.285 6.222 11.034 9.333 3.112 2.616 8.134 8.272 12.236 9.121.495-2.121 1.697-5.515 1.415-7.636 1.202-1.202.848-2.121-1.132-2.687-1.203-.919-2.334-1.838-3.537-2.757-4.526-3.818-8.841-7.919-13.155-11.949-4.274-3.987-8.268-8.263-11.954-12.798-1.98-2.404-3.112-4.807-6.295-5.514-3.89-.99-5.163 1.979-7.85 4.807zm130.78 243.079c-.212 3.535 8.558 5.727 11.246 5.939 7.215.565 11.883-2.546 14.358-8.768 5.164-12.938 13.368-24.322 16.834-37.897.99-4.03 1.91-5.868-1.768-7.918-1.485-.849-5.376-2.758-7.002-1.627-1.556.99-2.83 5.586-3.82 7.283-1.556 2.687-3.395 5.161-5.092 7.777-8.064 11.878-16.127 23.615-24.756 35.211zM116.522 264.566l33.596 19.231c1.415-4.808 2.052-9.898 3.325-14.777.919-3.464 3.324-8.343 3.183-11.383-.213-4.525-3.749-10.535-5.305-14.919-1.91-5.373-3.82-10.817-5.729-16.191-2.617 2.475-5.588 4.172-5.588 7.424 0 1.838 1.202 2.97.495 5.091-.495 1.485-2.617 3.394-3.678 4.525-2.971 3.182-2.9 3.323-6.083.353-4.668 6.859-9.407 13.717-14.216 20.646zm36.991 90.005c.46-4.56 1.168-9.092 2.122-13.575.637-2.757 3.325-8.484 2.476-11.171-.637-1.909-4.527-3.606-6.083-4.666-4.385-3.041-8.629-6.222-13.014-9.333-3.82-2.687-7.639-5.374-11.388-8.202-3.466-2.616-6.083-5.868-10.256-7-3.678-.989-8.275-.353-12.095-.494-5.092-.142-10.255-.213-15.348 0-17.046.848-36.143-.354-52.482 4.383-7.78 2.263-12.731 3.535-17.046 10.888-4.976 8.476-9.303 17.315-12.943 26.444-.566 1.343-1.769 3.252-1.698 4.737.07 2.757 1.061 2.121 3.749 3.747 2.9 1.697 5.729 3.747 8.487 5.727 4.998 3.438 10.194 6.578 15.561 9.403 5.941 3.111 11.883 5.939 17.895 9.05 3.82 1.98 7.78 3.606 11.529 5.798 4.031 2.404 8.629 3.04 13.014 4.879 13.58 5.727 26.665 11.029 39.963 17.605 13.014 6.363 26.099 11.807 39.396 17.393 17.188 7.282 34.163 13.999 52.058 19.09 1.344.353 4.102 1.697 5.375 1.626 2.759-.141 3.395-2.121 5.093-4.454 3.253-4.455 6.436-9.05 9.548-13.646 6.79-9.899 13.439-20.009 20.724-29.554-20.724-5.798-39.891-16.403-58.069-27.362-.778 2.191-1.415 6.999-3.89 7.706-3.042.919-5.305-3.323-6.649-5.302-1.273 3.252-3.536 14.14-7.709 13.928-5.73-.353-4.739-9.403-5.447-13.009-3.183 4.242-6.861 9.05-11.175 2.616-2.9-4.313-2.617-12.232-1.698-17.252zm239.776-51.613c-2.688-.849-5.305-1.556-7.922-2.475-.708-1.485-1.839-1.909-3.395-1.343-1.294.115-2.598-.054-3.82-.495-5.631-.899-11.204-2.127-16.692-3.677-4.668-1.414-8.983-2.616-13.722-3.676-2.829-.637-15.277-4.172-17.116-2.051-.566.637.424 8.343.283 9.757-.213 2.475-.354 6.505-1.91 8.555-.566.778-2.9 1.627-3.678 2.263-2.688 1.98-5.163 4.454-7.78 6.505-5.8 4.454-11.459 9.12-17.329 13.504-4.173 3.04-8.983 4.596-13.581 6.787 3.325.566 9.761-2.616 13.086-3.535 4.314-1.272 8.558-2.686 12.943-3.888 9.054-2.404 18.319-5.091 27.514-7.636 5.659-1.556 11.6-3.182 17.117-5.303 2.405-.919 4.314-3.04 5.941-.849 1.273 1.768-.283 4.031-1.273 5.303-5.729 7.495-21.36 9.333-29.636 12.444-9.407 3.535-18.673 7.212-28.433 9.686-11.317 2.899-23.624 5.091-34.163 10.182-8.771 4.171-18.673 5.797-28.009 8.272-8.771 2.333-19.097 2.757-27.373 6.717 3.537 2.828 8.842 4.313 13.015 6.151 5.092 2.333 10.256 4.454 15.277 6.858 2.122 1.061 4.386 2.616 6.578 3.465 2.759 1.131 2.405.495 5.234.282 4.456-.353 10.398-1.131 14.005 2.051 4.314 3.889 1.556 8.131 2.192 12.868.425 3.252.637 2.757 4.315 3.252 3.324.424 6.649.99 9.973 1.697 4.032.849 8.205 2.333 12.166 3.606 6.153 1.98 6.79 4.313 13.155 1.768 18.178-7.283 36.992-13.222 55.311-20.08 8.417-3.182 16.905-9.262 24.827-13.858 10.185-5.868 19.38-12.232 26.311-21.989 3.112-4.454 6.437-12.019 5.729-17.534-.566-4.949-4.243-10.464-6.648-14.707-3.042-5.444-5.659-7.565-10.256-11.171-3.254-2.474-8.205-7.777-12.236-7.706zm-202.642 41.997c.283 2.758-1.344 14 .283 15.697 2.687 2.969 9.336-.495 11.882-1.344 8.346-2.899 18.036-2.262 26.524-4.525 8.205-2.192 16.268-5.02 24.614-7.282 4.456-1.202 8.629-3.111 13.015-4.525 4.88-1.626 10.326-2.475 14.782-4.879-.566-1.414-20.087 1.98-22.28 2.121-7.709.637-14.995-.565-22.563-1.979-16.763-3.111-32.536-10.394-49.086-15.131.778 7.636 22.28 9.121 19.662 18.03-.707 2.474-10.326 6.504-13.509 4.949-6.436-3.111 1.415-7.566 4.668-8.697-4.887-2.805-9.589-5.923-14.075-9.333-4.81-3.676-6.861-8.908-9.407-14.282-5.376-11.171-18.036-17.746-27.868-24.675-10.68-7.565-21.997-13.929-32.677-21.494-1.91-1.343-2.759-.707-3.466-3.182-.707-2.616 1.91-5.939 3.183-7.989 3.325-5.304 7.24-10.213 11.67-14.636-5.729-3.888-11.882-7.07-17.187-11.454-5.446-4.454-9.902-9.898-14.712-14.989-7.639 16.615-18.319 32.029-26.736 48.361-3.324 6.434-5.092 16.191 0 22.413 5.305 6.576 15.207 4.03 22.704 4.384 7.779.236 15.498 1.423 22.988 3.535 3.536.99 6.719.707 10.114 2.333 3.961 1.909 7.922 4.384 11.671 6.646 7.426 4.455 14.429 10.04 21.431 15.131 2.9 2.121 18.531 14.494 6.153 12.585 0 11.595-2.051 23.403-3.112 34.928 2.848-3.389 5.139-7.207 6.79-11.313 1.061-2.475 1.061-8.909 4.598-7.353 5.305 2.262 1.202 19.019 1.202 23.544 1.267-2.552 2.331-5.2 3.183-7.919.707-2.05 1.627-7.777 3.112-9.191 5.022-4.596 5.729 7.919 5.729 10.464 1.627-4.596 1.91-9.474 2.052-14.353.07-1.909-.425-4.878.07-6.717.778-3.111.708-2.898 3.961-4.171.283 2.121.425 4.242.637 6.292zm154.474 97.713c.425 3.888 1.91 6.787-.636 10.251 4.951-.353 9.902-.777 14.853-.636 4.032.071 9.973.99 13.722-.707 1.556-.707 2.051.495 2.829-.848.778-1.273-.99-5.444-1.202-6.505-.991-5.02-1.486-10.181-2.405-15.201-.637-3.465-2.476-10.252-.142-13.575 3.395-4.808 4.951 1.979 5.8 4.949 2.9 9.898 2.759 19.373 2.759 29.554 4.385 0 10.185-1.909 14.429-3.111 5.87-1.626 12.165-3.252 17.824-5.373 5.375-1.98 10.114-4.879 13.509-9.475 2.546-3.464 8.134-12.019 6.79-15.837-1.697-4.667-9.902-7.919-14.217-8.485-5.658-.636-11.458.495-17.258.92-6.224.494-12.236 1.908-18.319 2.545-5.941.636-13.934 2.616-19.734 1.131-.141 2.404 1.839 5.586 2.547 7.99.919 3.181 1.697 6.363 2.475 9.615.778 3.465 5.659 15.838 1.203 18.312-5.234 2.899-7.71-9.545-8.347-12.585-1.556-7.212-2.9-14.494-1.273-21.706-6.648-1.202-14.712.566-21.572 1.061 2.475 9.191 4.102 18.595 6.365 27.716zm-287.022 3.959c2.334 1.06 5.516.495 7.992.707 3.96.283 7.922.99 11.883.919 6.012-.212 12.377-.99 18.46-1.626-3.466-6.222-5.517-12.09-5.941-19.231-.142-2.546-1.486-18.454 3.183-17.747 2.263.354 1.768 13.929 2.263 16.403.637 3.606 1.485 7.353 2.476 10.889.707 2.545 3.253 6.434 2.617 9.191l9.124-1.485c-2.402-4.448-4.096-9.242-5.022-14.211-.424-2.545-.141-5.727-.99-8.131-.495-1.556-1.698-2.97-1.91-4.242-.212-1.485 1.415-5.091.849-6.434-.566-1.273-4.668-2.475-6.083-3.182-3.96-1.98-6.295-2.475-10.68-1.343-8.558 2.192-21.997 3.676-28.363 9.545-6.295 5.727-8.558 25.241.142 29.978zm372.676-282.389c2.335-.283 4.669-.425 7.074-.566-3.465-4.87-6.631-9.947-9.478-15.201-1.415-2.546-2.759-5.162-4.032-7.848-1.485-3.04-1.415-5.02-4.597-5.586-4.386-.848-10.256.849-14.783.637-3.466-.142-11.388-3.465-14.146-2.263 2.546 5.232.495 13.434.637 19.09.026 5.579-.519 11.147-1.627 16.615 6.012 0 13.509-2.05 19.592-2.969 7.002-1.061 14.217-1.132 21.36-1.909zm-95.273 289.318c2.277-.259 4.569-.377 6.861-.354-5.234-8.555-9.195-18.029-9.266-28.21 0-1.344 1.627-8.98 1.061-9.616-1.061-1.202-5.305-.283-6.507-.141-4.81.495-10.114.424-14.641 2.191-3.112 1.202-3.112.495-4.385 4.101-.771 2.233-1.2 4.569-1.274 6.929.145 4.889 1.276 9.699 3.325 14.141 1.839 3.959 4.668 8.201 8.558 10.322 4.598 2.334 10.963.92 16.268.637zm47.814-316.61c-.92-3.394-.496-2.616-3.537-3.04-.637-.071-7.568.071-7.992.495-.425.495-.283 7.353-.354 8.201-.212 2.687-.495 5.445-.778 8.131-1.203 10.959-3.466 21.565-5.163 32.453 4.243-2.616 10.326.919 13.933-1.909 2.83-2.262 2.405-9.403 2.617-12.585.708-10.535.92-21.14 1.274-31.746zm152.211-12.797c-.354.636-.778 1.202-1.132 1.838 1.485.919 10.115-8.626 12.024-10.393 2.547-2.263 6.578-5.374 7.71-8.697 1.344-3.888 0-10.04-.283-13.999-.212-2.899.283-6.858-2.051-8.838-2.193-1.838-7.498-1.767-10.044-1.414-7.639 1.202-12.307 7.495-16.126 13.504 3.96-.495 17.753-6.787 19.38-3.393 2.334 4.949-12.237 9.403-13.651 13.787 2.97 1.06 9.548-3.041 7.709 3.747-.278.932-.849 1.749-1.626 2.333-1.344.495-1.698 1.414-.991 2.687-.636 2.687-.495 6.01-.919 8.838zm88.271 240.533c.071 1.626.212 3.181 1.485 4.313 2.9-9.263 3.82-18.525 5.022-28.14 1.203-9.616 2.476-19.444 2.688-29.059.14-11.107-.712-22.205-2.546-33.16-1.344-8.343-2.405-18.525-7.356-25.666 2.829 18.383 1.909 35.776.07 54.159-.99 9.757-2.404 19.444-3.112 29.271-.141 2.616-.212 5.232-.424 7.778-.142 1.555-1.627 4.383-1.627 5.161-.141 4.242 4.315 11.525 5.8 15.343zM473.85 350.4c2.334 5.373 5.022 10.676 6.437 16.403 1.485 6.08.848 11.666 1.061 17.817.424 10.181-.425 20.292-.283 30.473.141 8.697-.213 17.181-.142 25.736.071 5.444-.212 10.818-.212 16.262 0 0 .212 4.879-.142 5.091-1.697 1.131-3.536-.495-4.031-1.98l-4.951 5.656c2.617-.636 5.8-2.05 8.487-2.121.983-.354 2.059-.354 3.042 0 .982.615 1.768 1.498 2.263 2.545 7.002 1.485 11.246-4.737 12.519-10.322 2.759-12.091 1.769-24.11 1.556-36.342-.424-26.584 3.82-53.027 3.395-79.612-.07-5.161-.282-10.252.496-15.342 1.414-9.545 3.536-.778 3.89 3.676.99 13.505 2.829 27.504 1.839 41.079-.849 12.302-.778 24.675-1.415 36.978-.636 13.08-1.697 25.877-1.061 38.957 3.537-.424 14.783-1.131 15.985 3.818 1.061 4.313-3.112 2.687-5.234 2.546-3.466-.283-6.861.494-10.68-.142.283 5.798 1.061 13.575-4.102 17.464-2.547 1.909-6.791 3.676-9.761 4.808-2.9 1.131-7.851 3.606-10.893 3.464-2.122-.071-2.97-1.272-5.304-1.06-3.466.282-6.508 2.616-10.256.707-7.003-3.677-3.607-14.282.849-18.595 1.131-1.132 2.404-2.334 3.96-2.828.708-.283 3.82.07 4.103-.354 1.273-1.414-.354-9.686-.495-11.242-.92-8.201-1.91-16.615-2.264-24.887-.353-7.778-.778-15.555-.99-23.262-.071-1.697.707-5.161 0-6.646-1.202-2.475-6.366-4.03-8.558-5.161 1.98 19.585 4.951 40.583-2.264 59.178-1.414 3.677-3.041 8.98-6.719 11.03-3.466 1.909-11.529 1.697-15.631 1.909-4.386.283-8.771-.778-11.176-4.949-1.909-3.252-.778-7.212 3.183-8.626 2.334-.848 2.829-.283 4.88.707.451.713.763 1.505.92 2.333h1.556c2.122.99 10.751 2.051 13.085.495 2.759-1.767 3.324-6.575 4.527-9.403 2.192-5.303 2.758-9.545 3.536-15.201 1.203-8.838 0-19.09 0-28.353v-7.777c0-3.889.354-3.889-1.909-6.717-3.395-4.242-7.215-8.626-10.822-12.656 1.98 11.879 1.132 24.464.354 36.342-.425 6.646-1.344 13.434-1.769 20.009-.141 1.98 1.273 7.424-.99 8.272-2.334.919-5.234-3.252-6.153-4.737-5.164 10.252-11.247 20.151-21.856 25.453-5.446 2.758-11.105 3.96-17.046 5.02-5.517.99-10.61 2.828-16.056 3.677-11.246 1.767-21.572 1.98-32.889 1.626-10.68-.353-20.866 1.626-31.546-.848-4.173-.99-8.346-2.758-11.175-5.939-1.556-1.768-2.264-4.455-3.82-6.081-.353-2.05-1.556-2.687-3.678-1.909-1.298.06-2.599.013-3.89-.141-10.68-.566-22.563.07-32.889-2.97-3.89-1.131-8.276-3.04-6.366-7.989 1.698-4.313 6.436-2.97 10.327-2.616 11.246 1.06 22.35 3.111 33.738 4.1-.354-5.939-.071-12.019 2.263-17.605-7.922-.99-16.126-2.474-23.624-5.02-2.334-.777-4.668-1.626-6.931-2.404-3.82-1.343-3.042-1.697-5.234.637-2.759 3.04-4.456 9.333-6.437 12.938-2.308 4.039-4.409 8.192-6.295 12.444-1.768 4.03-3.112 9.474-5.87 12.939-6.012 7.707-19.946 8.343-28.151 5.303-4.031-1.485-5.446-1.697-7.922-5.303-2.687-3.959-3.324-4.172-8.275-4.737-8.741-1.024-17.319-3.138-25.534-6.293-8.77-3.252-17.824-5.797-26.523-9.262-8.205-3.252-16.127-6.575-24.614-9.121-.991 6.364 3.182 13.575 3.182 20.221 4.951-.494 9.549-.919 14.429-1.696 1.769-.283 12.732-2.758 13.793-1.273 4.456 6.08-15.844 8.909-19.027 9.686-10.185 2.546-20.582 4.95-30.838 6.929-10.468 2.051-20.653 4.03-31.263 4.384-17.965.636-42.791-.424-41.872-24.039.354-9.262 4.173-19.302 11.458-25.312 4.527-3.747 10.186-5.798 15.773-7.495 2.051-.636 12.873-2.121 13.156-2.898-3.041-2.192-8.275-2.758-11.883-4.455-3.465-1.626-7.073-2.192-10.61-3.818-7.012-3.302-13.815-7.033-20.37-11.171-5.27-3.186-10.347-6.681-15.207-10.464-3.819-2.97-7.426-5.868-10.468-9.333-1.556-1.767-4.385-3.394-5.658-4.949-4.456-5.444.212-16.191 2.122-22.484 2.758-9.191 6.436-19.019 11.953-27.008 5.022-7.354 10.61-12.303 19.593-14 8.275-1.555 16.692-2.121 25.18-2.545-1.415-5.444-3.466-9.262-2.9-15.201.495-5.586 3.324-11.171 5.517-16.333 4.173-9.474 8.063-18.807 13.721-27.574 3.112-4.808 6.578-9.404 9.973-13.999.566-.778 3.961-4.172 3.82-5.091-.142-.919-3.537-3.818-4.103-4.525-3.536-4.454-5.941-9.262-1.839-14.07 2.122-2.475 8.488-7.495 11.53-4.384 3.323-6.646 9.053-11.171 13.509-16.827 5.587-7.07 10.892-14.211 16.126-21.635 5.234-7.353 9.478-15.272 16.339-21.211 7.709-6.576 14.924-6.01 24.402-3.182.566-3.676 1.273-3.182 4.809-4.383 2.688-.92 5.234-1.98 7.922-3.041 2.781-1.02 5.614-1.893 8.488-2.616 3.819-1.131 4.385-.777 5.022-5.727.778-5.939-1.839-12.231-3.466-17.888-.778-2.757-1.344-6.221-3.183-8.06-1.627-1.697-4.598-2.475-6.366-4.313-15.56-16.05-15.843-50.34.778-65.259 3.254-2.899 5.871-6.787 9.902-8.767 4.82-2.195 9.875-3.832 15.066-4.879 9.973-2.12 21.219-1.414 29.141 5.586 3.89 3.464 6.295 8.98 7.639 13.928 1.273 4.737.99 12.656-3.82 5.374-3.041-4.596-5.658-9.262-10.822-11.525-4.774-2.118-9.994-3.04-15.206-2.687-11.812.99-21.361 4.455-29.495 13.222-9.053 9.616-9.478 25.029-7.568 37.331 1.697-3.605 2.9-9.403 7.71-10.04 4.031-.565 10.326 4.526 8.204 8.91-9.761-2.475-12.59 12.23-4.173 13.15 2.546.283 5.8-4.242 8.134-3.252 4.385 1.98-1.485 8.767-2.688 11.03-.636.353-1.202.777-1.839 1.13.637 1.415 1.203 2.829 1.839 4.243.778 1.767 1.486 3.606 2.122 5.444 1.734 4.467 3.152 9.051 4.244 13.716.99 4.738 1.485 10.252-.849 14.636-2.546 4.879-4.951 4.242-6.931-.353-5.164 3.252-10.327 6.716-16.339 7.989 6.366 10.605 14.57 19.797 26.878 23.12 10.468 2.828 23.623 2.757 33.596-1.98 10.327-4.878 16.056-16.261 14.854-27.574-.425-3.677-2.547-16.403 2.546-7.212 2.758 5.02 2.971 13.222 2.334 18.807-3.041 26.514-29.919 36.413-53.048 30.049-11.882-3.252-20.441-12.019-26.806-22.342-1.486-2.404-2.829-4.879-4.173-7.353-.566-.99-.991-2.404-1.698-3.253-2.758-3.393-.071-1.484-2.971-1.979-4.597-.637-11.741 2.828-15.136 5.585-9.195 7.495-14.287 19.514-21.36 28.989-7.498 10.04-17.046 19.019-26.595 27.079 10.822 11.101 21.644 22.177 32.465 33.231 2.264-2.475 6.508-8.131 7.073-11.454.354-1.909-1.202-8.343 3.608-5.515 3.253 1.909 4.456 10.11 5.517 13.504 1.556 5.162 4.173 10.04 5.941 15.201 3.183 9.545 7.073 18.949 10.326 28.565 1.344 3.888 5.093 8.767 1.486 12.019-5.517 5.02-7.144-4.878-8.559-8.626-2.051 2.829-1.768 7.354-2.829 10.677-.636 1.979-2.546 5.09-2.546 7.07.141 3.394 3.183 4.384 5.941 6.293 5.164 3.535 10.398 6.928 15.137 11.029 1.991 1.614 3.752 3.494 5.234 5.586 1.273 1.909 1.626 6.222 3.041 7.565 1.839 1.768 8.488.495 12.024.919 5.871.637 11.883 2.758 17.612 4.242 10.114 2.687 20.512 6.505 31.121 7.919 10.397 1.414 20.158.707 30.556-1.131 5.658-.99 11.741-2.263 16.904-4.949 5.941-3.111 11.246-8.131 16.834-11.949 2.475-1.697 5.022-3.323 7.568-4.879 3.395-2.121 2.546-1.697 2.758-5.09.283-3.96 1.91-11.525-.707-14.989-1.132-1.485-4.456-2.546-6.083-3.606-2.334-1.556-4.385-3.394-6.861-4.596-2.687-1.343-2.758-.283-4.031-3.606-1.132-3.04-1.91-6.222-2.971-9.333-4.809-14.07-6.012-28.352-8.063-42.987-.92-6.788-3.183-16.121-.637-22.767 3.537-9.262 6.578 3.677 7.286 7 3.395-5.869 5.375-12.303 8.912-18.1 2.051-3.394 3.112-5.091 4.243-8.768.496-1.484.637-2.757 1.627-3.959 2.122-2.616 2.405-1.131 4.598-1.202 6.931-.212 13.651 0 20.582.283 3.82.141 7.639.283 11.458.283 1.839 0 3.749-.071 5.659 0 1.017.002 2.033.073 3.041.212 2.051.99 2.829.141 2.334-2.475 1.769-3.747 1.698-9.757 2.334-13.858.637-4.1 1.203-8.272 1.769-12.373.283-2.191 2.687-10.534 1.414-12.373-1.273-1.767-7.851-1.414-9.761-1.697-12.943-2.121-24.967-7.494-37.062-11.807-5.941-2.121-11.6-5.02-17.329-7.707-2.971-1.343-5.8-4.171-8.912-5.09-3.961-1.132-9.195.636-13.156 1.343-7.391 1.364-14.853 2.308-22.35 2.828-2.688.141-7.781.919-10.256-.919-4.881-3.747.707-5.868 3.89-6.363 14.075-2.051 28.15-3.253 42.367-4.101.637-.071 3.112-.566 3.89-.283 1.839.566 1.132 1.273 2.193 1.838 2.221 1.148 4.572 2.027 7.002 2.616 7.427 1.98 14.924 5.303 22.422 7.919 13.438 4.667 29.494 12.161 42.933 10.818 3.324-.354 6.012-.707 9.478-.425 4.031.425 6.436 2.475 9.548 3.111 4.173.778 10.185.213 14.571.354 4.173.141 8.417.353 12.59.353-3.468-7.135-6.147-14.627-7.993-22.342-1.132-4.313-2.829-8.272-2.122-12.868.419-2.139 1.133-4.209 2.122-6.151 1.415-2.97 1.839-2.333 2.334-5.586.708-4.454-.283-9.191.212-13.716.566-4.596 4.032-8.696 4.456-13.15.213-2.334-1.131-4.243-.707-6.788.354-2.263 1.698-4.667 2.9-6.576 2.829-4.454 6.224-6.929 10.963-8.767 3.82-1.485 8.7-2.757 12.519-.424 3.961 2.404 3.678 7.212 5.517 10.747 4.032 7.565 13.368 14.352 20.795 18.241 6.861 3.535 14.217 5.798 21.502 8.131 4.456 1.414 9.053 2.404 13.439 4.03 3.183 1.131 8.275 3.96 11.529 2.263 2.829-1.485 6.083-6.08 8.841-8.131 3.254-2.475 7.568-4.879 11.671-2.758 4.102 2.121 3.748 10.11 6.931 11.596 1.132.495 4.385-.99 5.871-.778 2.404.353 4.102 1.909 5.587 3.747 5.447 6.93 7.144 17.959 7.356 26.514.142 4.242 0 9.616-2.617 13.222-3.041 4.242-8.77 4.312-12.731 7.282-3.112 2.404-5.305 6.293-8.488 8.838-1.98 1.555-2.688.353-3.536 2.828-.495 1.556.565 4.666.848 6.222 1.91 9.474 5.588 18.171 9.054 27.221 1.708 4.191 2.965 8.552 3.749 13.009.495 2.97-.071 5.515.141 8.343.142 2.051 1.061 3.747.849 5.869-.425 4.383-2.759 8.272-4.315 12.16-1.697 4.384.637 12.02 2.405 16.616 4.173 10.888 10.044 21.918 15.278 32.453 5.092 10.322 8.912 21.281 14.924 31.18 5.8 9.615 12.59 19.019 19.238 28.14 3.678 5.09 7.569 9.898 10.893 15.201.707 1.131 5.658 10.747 7.002 10.464-1.556-16.757 0-34.22.707-50.977.849-20.999-1.768-40.018-7.709-60.027-1.415-4.667-2.617-9.474-3.607-14.282-.708-3.323-2.617-6.081 2.122-4.667 7.78 2.404 14.711 17.181 18.672 23.545 8.912 14.352 16.339 33.513 17.329 50.34.889 16.239.25 32.525-1.91 48.644-.97 8.365-2.698 16.624-5.163 24.676-1.28 4.029-2.816 7.973-4.597 11.807-.708 1.626-2.334 3.394-2.617 5.161-.425 2.758 1.626 6.576 2.122 9.333 1.627 9.072 2.126 18.31 1.485 27.504-.199 4.744-1.081 9.435-2.617 13.929-2.051 5.868-1.061 10.393-.212 16.403.919 6.504 1.768 21.211-4.951 24.887-.496-.07-.92-.07-1.415-.141-1.202-1.414-2.263-1.273-3.183.212-1.768.566-3.466 2.05-5.305 2.687-4.243 1.484-8.841 1.555-13.297 2.192-8.7 1.272-17.399 3.464-25.887 3.747-10.221.452-20.462-.164-30.555-1.838-2.052-.354-4.456-1.344-6.508-1.556-2.758-.283-4.739 1.626-7.568 1.131-4.456-.707-7.214-5.373-7.568-9.191-.919-12.303 5.871-17.888 17.046-20.08-7.214-10.323-15.49-18.736-17.4-31.958-1.909-13.009 2.193-28.069 9.62-38.462 7.143-9.97 19.238-16.686 31.828-14.141 5.8 1.202 33.243 9.262 27.939 18.453-1.203-4.171-8.417-3.393-11.883-4.03-5.8-.99-11.6-2.545-17.47-2.191-11.6.636-22.775 7.423-28.363 17.817-6.437 11.949-3.537 23.827 4.244 34.079 7.143 9.333 14.429 19.09 23.977 25.877-1.839 2.97-1.202 3.889-4.88 3.323-2.546-.353-4.881-2.333-7.427-2.828-5.305-.99-13.58 3.323-16.834 7.636-1.909 2.545-1.839 3.818 1.698 5.374 2.617 1.131 6.79.565 9.549.848 7.055.613 14.137.873 21.219.778 12.165-.071 23.482-1.98 35.577-3.253 5.375-.565 10.892.071 16.126-1.909 7.073-2.686 5.376-10.464 4.456-16.827-.919-6.293 0-11.1.99-17.322.425-2.687 1.203-5.798.637-8.555-.637-3.253-1.839-4.667-1.697-8.273.502-13.043-1.001-26.087-4.456-38.674-7.356-26.868-25.393-48.008-40.387-70.845-4.244-6.434-8.7-12.515-12.095-19.514-3.183-6.576-5.376-13.575-8.559-20.221-7.002-14.636-13.65-29.625-17.753-45.392-4.668 1.838-9.619 4.525-14.57 5.161-5.659.707-11.671-3.818-15.207-7.848-8.063-9.121-9.973-21.494-9.337-33.23.152-3.48.482-6.949.991-10.394.424-2.262 3.041-7.636 2.404-9.686-.636-2.192-4.385-4.172-5.516-6.363-1.486-2.829-1.627-6.434-1.557-9.475.071-2.828 1.627-16.615 6.083-10.959 2.547 3.253-1.202 15.414 1.415 17.111 2.334 1.484 5.588-.354 7.992 3.11 2.617 3.677 1.203 8.273.283 12.161-1.909 8.131-3.678 16.899-3.607 25.242.071 7.636 1.415 17.18 9.69 20.291 4.173 1.556 7.356.495 10.539-2.404.707-.848 1.485-1.626 2.192-2.403.708-1.202 1.769-1.344 3.183-.425 1.061-.848 2.617-6.575 3.113-7.848 6.436-15.767-3.678-33.867-7.427-49.351-2.264-9.474-4.244-18.948.353-28.069.779-1.485 2.83-2.757 1.556-4.878-.353-.566-3.395-.849-4.173-1.485-2.404-2.121-1.909-6.01-1.909-8.838-5.517 1.697-7.144-2.616-6.437-7.848-4.102.636-7.002 1.909-8.487-2.828-1.344-4.243.707-8.555 2.051-12.515-19.097-2.05-39.68-4.666-54.957-17.817-3.724-3.368-6.919-7.277-9.478-11.595-.495-.778-2.688-6.152-3.395-6.434-2.193-.849-4.032 3.393-5.942 4.454-1.697.919-4.173 1.485-6.082 2.05-1.769.566-8.134.637-9.266 1.556-2.829 2.333-2.617 15.837-2.617 18.948-.028 10.831 2.288 21.54 6.79 31.393 4.173 9.262 10.609 21.988 19.026 28.069 1.882 1.554 4.283 2.338 6.72 2.192 1.909-.071 3.819-1.414 5.8-.707 5.092 1.767 3.253 5.302-.637 6.928-11.105 4.738-20.512-5.726-26.948-13.009-1.91 8.697 6.861 18.949 11.458 26.019 2.971 4.525 5.871 9.05 8.629 13.646 2.051 3.323 6.012 9.474-1.061 6.929-3.395 17.958-12.802 33.725-17.612 51.189-4.951 17.958-9.194 38.392-9.194 57.057 3.748-2.616 5.658-14.494 10.68-5.373.566.99.353 2.616 1.061 3.464.99 1.202 2.192.849 3.748 1.697 2.405 1.344 3.961 4.03 1.839 6.364 2.759-.637 5.73-.283 6.295 2.969.354 1.838-2.404 10.394-4.385 11.101-6.153 2.121-13.014-10.182-14.641-14.07-3.819 3.888-8.275 6.858-11.812.565-2.617-4.666-1.132-11.666-.707-16.756.778-10.182 1.697-20.151 3.183-30.261 2.758-18.949 9.76-35.776 18.389-52.887 2.405-4.666 5.022-9.474 7.144-14.282 3.183-7.211-1.768-5.515-6.719-4.454-9.65 2.127-19.433 3.591-29.282 4.384-5.022.353-11.529.636-16.339 2.05-3.395 1.061-2.829.283-4.173 3.959-.543 1.698-1.355 3.298-2.405 4.738-5.517 7.141-19.804 5.939-27.655 5.444.495-3.041.919-6.01 1.414-9.05-6.397 1.515-12.947 2.298-19.521 2.333-3.395-.071-6.932-.566-10.327-.849-2.476-.212-7.144-1.979-9.478-1.272-2.688.777-6.79 10.535-8.346 13.716-2.9 5.939-8.063 12.444-9.902 18.666-1.627 5.515 1.697 15.06 2.758 20.504 1.486 7.919 2.9 15.908 5.376 23.544 1.839 5.586 3.961 13.292 9.548 16.05 5.588 2.757 9.62 4.313 15.632 3.747 10.609-.99 21.926.636 32.465 2.687 10.822 2.121 20.724 3.111 30.98 6.858 23.27 8.626 38.123 35.14 29.353 59.391-5.022 13.999-13.368 24.322-25.605 33.018-6.224 4.384-13.58 7.99-20.37 11.384-3.112 1.555-6.224 3.464-9.407 4.807-2.334.99-6.366 3.323-8.841 3.606 2.829 1.344 5.304.071 8.204-.353 4.173-.566 8.347-.707 12.52-1.202 6.436-.778 12.872-1.414 19.309-2.192 5.723-.79 11.523-.837 17.258-.141 2.617.353 6.649 1.131 8.983 2.403 1.839.99 3.536 3.324 5.587 4.455 2.193-9.05 1.203-20.151 1.274-29.413.07-7.565.424-14.989 1.131-22.483.778-8.414-4.385-17.959-6.224-26.231-1.768-7.707-6.507-17.464-4.81-25.524 2.193-10.182 7.993 8.06 8.771 10.676 2.476 8.131 5.375 16.12 8.134 24.18 3.253 9.616 6.578 18.878 11.317 27.858 3.961 7.494 8.487 16.261 16.692 19.867-.637-11.03-1.415-21.211-6.012-31.321-4.315-9.616-10.963-18.171-13.863-28.494-1.415-5.091-1.627-10.393-1.698-15.625-.07-3.535.142-8.343 3.961-4.525 3.042 3.04 3.607 12.726 4.951 16.827.637 1.98 1.556 3.747 2.193 5.727.283.849 2.476 5.091 2.476 5.656 2.051 6.717 6.931 13.08 10.326 19.232z" clip-rule="evenodd"/>
    <path fill="#101010" fill-rule="evenodd" d="M240.086 107.957c.212 2.546 1.698 9.262-.212 11.313-2.546 2.687-3.749-.778-4.809-3.535-2.264-5.727-3.466-16.828 1.131-21.636 4.739-5.02 14.075-5.09 19.097-10.11 2.051-1.98 1.838-1.556 1.626-4.667-.07-1.767-1.273-4.1-1.768-5.656-1.414-4.1-2.97-8.201-4.526-12.302-2.617 1.202-6.366 4.878-8.983 1.767-2.405-2.828 1.556-7.494 4.315-8.343-1.415-3.181-8.205-2.545-9.549-7.211-1.131-4.03 2.122-2.404 2.829-4.03.849-1.839-.848-4.384 0-6.081 3.042-5.939 6.437 5.02 7.922 6.929 2.829 3.677 7.709 4.454 8.134 9.97.282 3.393 0 4.948 1.414 8.271 1.273 3.04 2.829 6.01 3.89 9.192 1.627 4.737 4.102 13.433.99 18.03-2.687 3.888-9.194 6.858-13.438 8.484-2.122.848-5.022 1.343-6.79 2.969-2.192 2.121-1.485 3.465-1.273 6.646zM459.777 251.698c-.495-.777-.991-1.485-1.415-2.262-3.324 3.606-7.073 5.02-10.468.495-3.465-4.667-2.192-11.666-.848-16.757.707-2.616 4.243-13.009 6.507-5.091.495 1.768-1.203 5.586-1.486 7.353-.565 3.324-1.061 6.576-.636 9.97 3.89-3.536 5.87-12.373 9.831-3.182 1.414 3.323 1.627 8.838 5.446 3.747 2.051-2.686 2.192-7.706 3.112-10.959 6.577 1.556 5.375 11.242 3.183 15.979-3.466 7.495-8.205 5.091-13.226.707zM482.691 83.142c2.334 3.889-2.051 10.96-2.9 14.99 3.89-.424 13.58-9.9 16.267-8.344 5.659 3.253-6.294 14.495-8.558 16.122-18.389 13.222-15.065-24.89-4.809-22.768zM459.634 126.412c6.86-1.909 16.125 10.394 11.67 16.475-3.183 4.383-7.144 1.838-8.134-1.98-.495-1.98-.071-4.313-.707-6.505-.849-2.687-1.91-5.303-2.829-7.99z" clip-rule="evenodd"/>
    <path fill="#101010" fill-rule="evenodd" d="M248.644 73.384c5.233 4.384-5.446 15.06-10.751 6.717-1.485-2.333-1.768-4.384.424-5.232 1.132-.425 3.678.99 5.234.707 1.698-.283 3.607-1.485 5.093-2.192zM230.75 55.851c-2.051-2.545-7.71-18.03-.637-14.566 3.537 1.697 6.436 14.99.637 14.566zM463.525 389.782c-.212-1.98-.425-3.889-.566-5.869 2.617 1.344 7.851 2.616 8.699 5.586 1.698 5.586-6.224 1.131-8.133.283zM539.062 153.422c-1.556-2.121-6.365-19.586-2.192-19.162.778 6.364.919 12.94 2.192 19.162zM473.849 350.402c-3.395-6.152-8.275-12.515-10.538-19.162 5.233 4.172 9.265 12.728 10.538 19.162zM614.319 336.188c.212 2.192.424 4.455.636 6.647-3.112.848-.778-5.869-.636-6.647zM463.383 331.24c-1.373-1.596-2.235-3.566-2.476-5.657.849 1.909 1.627 3.818 2.476 5.657zM481.134 431.638c.071-1.98.141-3.96.141-5.94-.07 1.98-.07 3.96-.141 5.94zM249.068 111.493c1.344.142 2.617.354 3.961.496-1.061.425-3.536 1.133-3.961-.496zM511.195 452.354c1.344-.212 2.759-.708 4.102.071-1.414 0-2.758 0-4.102-.071zM472.081 407.811c0 1.485.071 2.899.071 4.384 0-1.485 0-2.97-.071-4.384zM500.373 385.044c-.071 1.556-.142 3.112-.283 4.667.071-1.555.212-3.111.283-4.667zM481.772 391.125c-.071-1.343-.142-2.686-.212-4.101.07 1.415.141 2.758.212 4.101zM522.371 403.073l-.213 3.608c.072-1.131.142-2.334.213-3.608zM276.866 433.618c-.608.331-1.289.504-1.98.504-.692 0-1.373-.173-1.981-.504h3.961zM413.022 68.647c0 1.203.071 2.405.071 3.608-.071-1.203-.071-2.405-.071-3.608zM280.897 101.241c-1.344.071-2.758.213-4.102.284 1.344-.071 2.758-.213 4.102-.284zM562.334 105.839v-3.537c.313.537.478 1.147.478 1.768 0 .622-.165 1.232-.478 1.769zM240.087 107.958c-.071-1.272-.142-2.474-.213-3.747.071 1.273.142 2.475.213 3.747zM574.853 477.861h2.758c-.918.07-1.84.07-2.758 0zM212.643.419c-1.202.07-2.404.212-3.607.283 1.203-.07 2.405-.212 3.607-.283zM452.914 135.109c-1.202-.142-2.334-.212-3.536-.354 1.132.071 2.334.212 3.536.354zM506.668 460.274c.071-.99.142-1.981.212-2.9-.07.919-.141 1.91-.212 2.9zM378.577 122.595h-3.466c.53-.297 1.127-.452 1.733-.452.607 0 1.203.155 1.733.452zM223.112.703c-1.202-.071-2.405.566-3.466-.355 1.132.142 2.334.284 3.466.355zM191.425 115.807c-1.131.071-2.263.212-3.395.283 1.132-.071 2.264-.212 3.395-.283zM262.296 432.628c-1.202.142-2.405.212-3.536.354 1.202-.142 2.404-.283 3.536-.354zM291.861 100.535c-1.132 0-2.334.071-3.465.071 1.131-.496 2.263-.92 3.465-.071zM614.745 331.664c-.142 1.203-.284 2.406-.354 3.608.141-1.202.283-2.405.354-3.608zM464.798 409.723c-.071-1.062-.142-2.052-.283-3.113.07 1.061.141 2.122.283 3.113zM75.922 400.246c-.212 1.062-.99 1.204-2.263.637l2.263-.637zM507.943 400.743c-.071-.92-.142-1.769-.213-2.689.071.849.142 1.769.213 2.689zM265.69 102.655c-.99.142-1.981.283-2.9.425.99-.142 1.91-.283 2.9-.425zM58.028 272.202c-.07.849-.212 1.769-.283 2.618.07-.849.142-1.698.283-2.618zM640.773 332.513c-.071-.849-.071-1.627-.142-2.476.071.849.071 1.627.142 2.476zM138.306 441.467c-.99 0-1.98 0-3.041-.07.459-.285.991-.429 1.531-.417.54.013 1.064.182 1.51.487zM255.366 55.64c0-.85 0-1.628-.071-2.477.567.85.708 1.698.071 2.476zM175.157 45.175c.071-.85.142-1.627.213-2.476-.071.849-.142 1.627-.213 2.476zM507.305 331.029c0-.92-.071-1.769-.071-2.688 0 .919.071 1.768.071 2.688zM500.87 377.551c0 .849-.071 1.698-.071 2.547 0-.849.071-1.698.071-2.547zM78.682 459.848c.637-.012 1.275.012 1.91.071-.635-.059-1.273-.083-1.91-.071zM458.854 385.329c-6.153-4.737-11.458-11.808-12.731-19.374 2.617 2.97 4.88 6.293 7.497 9.263 1.061 1.202 2.334 2.192 3.324 3.394 2.334 2.757 1.91 2.828 1.91 6.717zM437.352 353.3c-2.97-6.787-5.516-14.99-4.95-22.485 1.98 6.788 6.648 15.344 4.95 22.485zM447.186 393.175c-.071 1.98-.071 3.96-.142 5.869.071-1.98.142-3.96.142-5.869zM58.1 446.626c1.98.142 4.031.213 6.011.355-1.98 0-4.031.495-6.011-.355zM364.573 192.166c-1.132-.071-2.264-.142-3.395-.142 1.131.071 2.263.142 3.395.142zM358.701 184.603c.014-.202-.019-.404-.094-.592-.076-.187-.193-.355-.342-.491-.15-.136-.328-.237-.522-.294-.194-.058-.398-.071-.597-.039 1.909-1.061 2.475-.566 1.555 1.416zM416.346 260.326l.212-3.608-.212 3.608zM86.672 447.476c1.344-.071 2.688-.212 4.102-.283-1.415.071-2.758.212-4.102.283zM605.832 463.172h3.536c-.524.346-1.139.531-1.768.531-.628 0-1.243-.185-1.768-.531zM111.711 300.342c-.778 0-1.626.071-2.404.071.848 0 1.626-.071 2.404-.071zM535.528 124.149c.778.708-.212 2.406-1.132 1.84.354-.637.778-1.274 1.132-1.84zM166.67 374.087c0-1.061.071-2.052.071-3.113 0 1.061-.071 2.052-.071 3.113zM436.434 374.653c.07-1.062.141-2.123.141-3.255-.071 1.062-.141 2.193-.141 3.255zM624.647 262.657c.071 1.061.071 2.122.142 3.254-.071-1.132-.071-2.193-.142-3.254zM261.165 384.479c1.202.071 2.405.212 3.607.283-1.202-.071-2.405-.141-3.607-.283zM426.389 301.97c.07-1.061.141-2.122.141-3.183 0 1.061-.071 2.122-.141 3.183zM217.03 322.26c1.203.141 2.405.212 3.607.354-1.202-.071-2.404-.213-3.607-.354zM391.52 154.481c-.071.99-.071 1.981-.142 2.971.071-.99.071-1.981.142-2.971zM408.636 396.782c1.202-.85 2.334-.284 3.536.071-1.202 0-2.334-.001-3.536-.071zM269.652 110.998c-.778 0-1.556-.071-2.334-.071.778 0 1.556 0 2.334.071zM459.209 415.166l-.213-2.971.213 2.971zM381.124 399.893c.99-.142 1.91-.283 2.9-.354-.99.071-1.91.212-2.9.354zM339.391 279.202h3.112c-.477.261-1.013.398-1.556.398-.544 0-1.079-.137-1.556-.398zM393.571 177.672h-1.839c.611-.071 1.228-.071 1.839 0zM94.667 290.656h3.112c-.46.311-1.001.478-1.556.478-.555 0-1.097-.167-1.556-.478zM624.79 292.424c-.071.778-.142 1.628-.213 2.406.071-.849.142-1.628.213-2.406zM359.127 420.256c.071-.849.212-1.768.283-2.617-.071.919-.141 1.768-.283 2.617zM190.436 316.745c1.06 0 2.121 0 3.182.071-1.061.708-2.122.283-3.182-.071zM430.777 164.238c.991-.141 2.051-.212 3.042-.354-.991.142-1.981.213-3.042.354zM345.121 442.667c.071.92.213 1.84.283 2.76-.07-.92-.212-1.84-.283-2.76zM64.677 447.123l2.97.425c-.979-.211-1.971-.353-2.97-.425zM83.277 447.477c.99-.779 1.98-.567 2.97-.071-.99.071-1.98.071-2.97.071zM262.297 330.18c.99-.142 1.91-.213 2.9-.355-.99.142-1.981.213-2.9.355zM370.088 452.002l2.97-.425-2.97.425zM335.501 453.557c.99-.141 2.051-.283 3.041-.354-.99.071-2.051.213-3.041.354zM391.025 160.561c-.071.85-.071 1.628-.142 2.407.071-.85.071-1.628.142-2.407zM153.513 354.572c.071-.849.212-1.698.283-2.617-.071.919-.212 1.768-.283 2.617zM383.245 139.494c0-.849.071-1.698.071-2.547 0 .849-.071 1.698-.071 2.547zM190.646 344.956c.071.848.213 1.697.284 2.617-.142-.849-.213-1.698-.284-2.617zM193.971 316.745c.99.142 2.051.213 3.041.354-.99-.07-1.98-.212-3.041-.354zM356.791 442.95c.566 1.697.353 5.656-1.273 6.858-3.466 2.475-3.749-2.05-4.456-4.525-1.91-6.858-4.951-14.494-5.729-21.494-.212-2.192-.354-6.222 2.475-6.929 2.759-.707 4.173 3.677 5.093 5.869 2.766 6.373 4.094 13.277 3.89 20.221z" clip-rule="evenodd"/>
    <path fill="#101010" fill-rule="evenodd" d="M356.791 442.952c.071-.849.071-1.768.142-2.617-.071.849-.071 1.698-.142 2.617z" clip-rule="evenodd"/>
</svg>
