<svg xmlns="http://www.w3.org/2000/svg" width="24" height="24" fill="none" viewBox="0 0 24 24">
    <path fill="#101010" d="M2 17.833C2 18.478 2.522 19 3.167 19h17.666c.645 0 1.167-.522 1.167-1.167 0-.644-.522-1.166-1.167-1.166H3.167c-.645 0-1.167.522-1.167 1.166zM2 12c0 .644.522 1.167 1.167 1.167h17.666c.645 0 1.167-.523 1.167-1.167s-.522-1.167-1.167-1.167H3.167C2.522 10.833 2 11.356 2 12zm1.167-7C2.522 5 2 5.522 2 6.167c0 .644.522 1.166 1.167 1.166h17.666c.645 0 1.167-.522 1.167-1.166C22 5.522 21.478 5 20.833 5H3.167z"/>
</svg>
