<svg xmlns="http://www.w3.org/2000/svg" width="24" height="24" fill="none" viewBox="0 0 24 24">
    <circle cx="12" cy="12" r="24" fill="#fff"/>
    <path fill="#000" d="M5.367 7.5H0V24h5.367V7.5zM19.986 7.694c-.057-.018-.111-.038-.171-.054-.072-.017-.144-.03-.218-.042-.285-.058-.597-.098-.963-.098-3.129 0-5.113 2.275-5.767 3.155V7.5H7.5V24h5.367v-9s4.056-5.649 5.767-1.5V24H24V12.866c0-2.493-1.709-4.571-4.014-5.172zM2.625 5.25c1.45 0 2.625-1.175 2.625-2.625S4.075 0 2.625 0 0 1.175 0 2.625 1.175 5.25 2.625 5.25z"/>
</svg>
