<svg xmlns="http://www.w3.org/2000/svg" width="24" height="24" fill="none" viewBox="0 0 24 24">
    <circle cx="12" cy="12" r="24" fill="#fff"/>
    <path fill="#000" d="M22.98 5.59c-.651-1.158-1.358-1.371-2.796-1.452C18.747 4.04 15.134 4 12.003 4c-3.136 0-6.752.04-8.187.136-1.435.083-2.143.295-2.8 1.454C.345 6.747 0 8.739 0 12.245v.012c0 3.492.345 5.5 1.016 6.644.657 1.158 1.363 1.368 2.798 1.465 1.438.085 5.053.134 8.189.134 3.13 0 6.744-.05 8.183-.132 1.438-.098 2.145-.307 2.796-1.465C23.657 17.758 24 15.75 24 12.258v-.008-.004c0-3.508-.342-5.5-1.02-6.657zM9 16.75v-9l7.5 4.5-7.5 4.5z"/>
</svg>
