<svg width="75" height="50" viewBox="0 0 75 50" fill="none" xmlns="http://www.w3.org/2000/svg">
<path d="M4 49.3018L6.91244 40.5253L0 38.7795L3.45622 31.7962L8.64055 38.4303L26.2673 31.4471H24.8848V26.5588H25.576L7.25806 19.9248L7.60369 15.3857H13.8249L3.80184 11.894L5.18433 7.00578L12.0968 3.51416L31.7972 11.1957L40.7834 7.35494L33.1797 27.6063H35.2535L35.9447 31.0979H31.7972L36.9816 44.0169L39.4009 45.0644L40.7834 49.3018H35.5991L34.2166 46.8102L34.5622 49.3018H28.341V47.8577L31.106 44.0169L30.7604 38.4303L30.0691 44.0169L27.3041 47.1594V49.3018H18.6636V42.2711L12.788 45.0644L17.9724 44.3661V49.3018L15.8986 47.9052L15.5 49.3018L14.5161 47.9052L13.5 49.3018H4Z" fill="#101010"/>
<path d="M25.9907 8.08802L33.5253 2.74585L31.7972 10.4274L25.9907 8.08802Z" fill="#101010"/>
<path d="M5.32257 6.30726L6.73962 1L11.4055 3.1648L5.32257 6.30726Z" fill="#101010"/>
<path d="M24.8848 16.4329C26.6027 16.4329 27.9954 15.0259 27.9954 13.2904C27.9954 11.5549 26.6027 10.1479 24.8848 10.1479C23.1668 10.1479 21.7742 11.5549 21.7742 13.2904C21.7742 15.0259 23.1668 16.4329 24.8848 16.4329Z" fill="white"/>
<path d="M24.712 15.3856C25.5709 15.3856 26.2673 14.6822 26.2673 13.8144C26.2673 12.9466 25.5709 12.2432 24.712 12.2432C23.853 12.2432 23.1567 12.9466 23.1567 13.8144C23.1567 14.6822 23.853 15.3856 24.712 15.3856Z" fill="#101010"/>
<path d="M44.9308 7.00537L47.6958 21.6702L54.4355 23.5905L64.6313 13.6394L44.9308 7.00537Z" fill="#101010"/>
<path d="M56.682 20.972C58.0182 20.972 59.1013 19.8777 59.1013 18.5279C59.1013 17.178 58.0182 16.0837 56.682 16.0837C55.3458 16.0837 54.2626 17.178 54.2626 18.5279C54.2626 19.8777 55.3458 20.972 56.682 20.972Z" fill="white"/>
<path d="M41.8203 49.3017L50.4608 27.9554L60.1382 18.8772L73.9631 49.3017H59.447L56.3364 39.4777L57.7189 49.3017H51.152V38.4302L49.0783 49.3017H41.8203Z" fill="#101010"/>
<path d="M72.5806 29.7012L68.2604 35.7766L69.1244 37.7319L75 32.8436L72.5806 29.7012Z" fill="#101010"/>
<path d="M46.8664 6.83091L52.189 1.76807L54.1245 9.37979L46.8664 6.83091Z" fill="#101010"/>
<path d="M57.3733 10.3925L63.9401 4.56152L64.977 12.9414L57.3733 10.3925Z" fill="#101010"/>
<path d="M47.6958 18.1788C49.032 18.1788 50.1152 17.0845 50.1152 15.7347C50.1152 14.3848 49.032 13.2905 47.6958 13.2905C46.3597 13.2905 45.2765 14.3848 45.2765 15.7347C45.2765 17.0845 46.3597 18.1788 47.6958 18.1788Z" fill="white"/>
<path d="M47.8687 17.4808C48.5368 17.4808 49.0784 16.9336 49.0784 16.2587C49.0784 15.5838 48.5368 15.0366 47.8687 15.0366C47.2006 15.0366 46.659 15.5838 46.659 16.2587C46.659 16.9336 47.2006 17.4808 47.8687 17.4808Z" fill="#101010"/>
<path d="M56.8548 20.0994C57.5229 20.0994 58.0645 19.5523 58.0645 18.8773C58.0645 18.2024 57.5229 17.6553 56.8548 17.6553C56.1867 17.6553 55.6451 18.2024 55.6451 18.8773C55.6451 19.5523 56.1867 20.0994 56.8548 20.0994Z" fill="#101010"/>
<path d="M47.7996 22.4036L53.9171 24.1145L49.0784 28.3044L47.7996 22.4036Z" fill="#101010"/>
<path d="M47.765 24.9177L40.1268 26.3493L47.9378 25.6859L47.765 24.9177Z" fill="#101010"/>
<path d="M43.7903 23.0322L47.5922 24.2892L47.8687 25.3716L43.7903 23.0322Z" fill="#101010"/>
<path d="M47.8687 25.3716L48.0415 26.1747L43.7903 28.13L47.8687 25.3716Z" fill="#101010"/>
<path d="M52.7766 25.4419L58.2374 31.0634L52.2236 25.9656L52.7766 25.4419Z" fill="white"/>
<path d="M57.1313 26.2094L53.2949 25.0222L52.4655 25.7555L57.1313 26.2094Z" fill="white"/>
<path d="M52.4654 25.7568L51.8433 26.3155L54.2281 30.3658L52.4654 25.7568Z" fill="white"/>
</svg>
